<?xml version="1.0" encoding="utf-8"?>
<!-- Generator: Adobe Illustrator 16.0.0, SVG Export Plug-In . SVG Version: 6.00 Build 0)  -->
<!DOCTYPE svg PUBLIC "-//W3C//DTD SVG 1.1//EN" "http://www.w3.org/Graphics/SVG/1.1/DTD/svg11.dtd">
<svg version="1.1" id="Capa_1" xmlns="http://www.w3.org/2000/svg" xmlns:xlink="http://www.w3.org/1999/xlink" x="0px" y="0px"
	 width="136.374px" height="48.001px" viewBox="0 0 136.374 48.001" enable-background="new 0 0 136.374 48.001"
	 xml:space="preserve">
<g>
	<path d="M5.845,3.558C5.204,7.088,4.882,10.299,4.24,13.83c-0.321,1.605-0.642,3.21-0.963,4.494c0,1.284-1.284,1.284-0.963,2.889
		c0.321,0.963,2.568,1.926,2.889,3.209c2.567,7.704-8.667,14.767,3.209,18.297c4.494,1.604,1.605,0.321,4.815-0.963
		c2.247-0.963,3.531-1.926,6.42-1.605c2.247,0.32,3.21,1.605,5.457,2.247c2.889,0.963,4.173,0,7.062-0.321
		c6.42-0.962,14.766,2.568,22.148,2.889c7.383,0,14.124-4.814,22.149-2.568c6.42,1.605,15.408,4.815,22.791,2.568
		c3.853-1.284,5.778-3.852,10.593-3.531c3.852,0.321,7.383,2.889,11.235,3.21c5.457,0.321,4.494-0.321,5.778-4.494
		c0.642-1.926,0.321-2.889,1.604-5.136c1.284-1.926,4.173-3.21,4.814-5.457c0.643-2.889-2.246-7.062-2.888-9.951
		c-1.284-5.136,0.963-7.062,1.925-11.556c1.605-5.458-0.642-4.173-6.098-3.852c-4.173,0.321-8.025,0-11.556,1.926
		c-2.247,0.963-2.247,2.247-5.136,2.889c-1.926,0.321-5.136,0.321-7.062-0.321c-4.494-0.963-7.062-2.247-12.198-2.247
		c-4.173,0-9.309-0.642-13.161,0.321c-3.852,1.284-7.062,4.173-11.235,4.815c-8.345,1.605-9.309-1.926-16.05-4.494
		c-4.173-1.605-9.629,0.963-13.802,1.605c-1.926,0-5.778,0.963-7.383,0.642c-2.889-0.642-3.852-3.21-6.42-3.21
		c-5.778-0.321-12.198,7.383-14.766-3.21"/>
	<g>
		<path d="M5.071,3.344C4.095,9.068,3.075,14.529,1.556,20.051c-0.254,0.924-0.005,1.837,0.733,2.456
			c3.433,2.879,2.55,6.153,1.242,9.713c-0.988,2.688-2.165,5.256-0.76,7.984c1.044,2.027,6.375,4.615,8.508,4.028
			c0.824-0.227,1.678-1.441,2.355-1.783c4.065-2.048,7.347-0.797,11.259,0.723c1.958,0.76,3.953,0.341,5.922-0.072
			c4.525-0.949,9.065,0.118,13.493,1.065c5.515,1.18,10.459,2.009,16.028,0.773c3.344-0.742,6.528-1.832,9.947-2.253
			c3.926-0.485,7.832,0.984,11.574,1.98c5.317,1.415,10.636,2.333,16.116,1.454c2.195-0.353,4.179-1.538,6.106-2.566
			c4.743-2.531,8.984-0.513,13.554,1.146c2.238,0.812,6.697,1.812,8.625-0.237c0.698-0.742,0.84-2.122,1.078-3.044
			c1.011-3.928,2.313-6.53,5.266-9.306c2.801-2.633,1.114-6.279-0.149-9.252c-1.586-3.733-1.975-6.883-0.571-10.742
			c0.813-2.234,1.71-4.609,1.732-7.014c0.021-2.116-2.447-2.099-3.911-2.006c-5.676,0.359-11.456,0.169-16.562,2.945
			c-2.759,1.5-4.797,2.432-7.91,2.333c-2.773-0.088-5.729-1.257-8.408-1.938C92.033,5.218,86.767,5.45,81.864,5.44
			c-4.662-0.009-7.981,1.91-12.024,3.982c-5.737,2.941-10.755,1.653-15.946-1.303c-7.929-4.517-15.851-0.124-24.288,0.478
			c-3.683,0.263-5.335-4.042-9.444-3.111c-5.222,1.183-9.775,4.766-11.938-2.784c-0.285-0.993-1.833-0.57-1.548,0.427
			c0.692,2.417,1.869,6.002,4.956,6.163c4.599,0.239,8.915-4.282,13.269-1.109c3.567,2.6,7.085,2.091,11.332,1.285
			c3.211-0.609,6.299-1.673,9.556-2.059c3.738-0.444,7.052,1.986,10.147,3.725c3.721,2.09,7.631,1.782,11.672,0.884
			c2.516-0.559,4.867-2.169,7.11-3.353c4.291-2.266,9.273-1.607,13.944-1.441c6.222,0.222,11.952,2.609,18.103,2.804
			c2.043,0.065,3.822-0.331,5.577-1.337c4.107-2.354,7.315-3.364,12.109-3.582c1.302-0.059,7.941-1.642,7.415,1.501
			c-0.423,2.526-1.541,4.898-2.289,7.332c-0.599,1.947-0.328,3.927,0.043,5.879c0.671,3.535,4.752,7.571,1.846,11.156
			c-1.543,1.903-3.309,2.827-4.394,5.114c-0.808,1.702-1.041,3.955-1.513,5.79c-0.979,3.804-6.708,1.559-9.087,0.695
			c-3.244-1.178-5.981-2.228-9.457-1.773c-1.698,0.222-3.289,1.123-4.775,1.915c-3.479,1.856-6.837,2.328-10.747,2.137
			C84.739,44.524,78.525,41.2,71.789,41c-5.944-0.177-11.54,2.918-17.473,3.164c-6.956,0.287-13.716-3.124-20.744-3.03
			c-0.922,0.013-2.295,0.277-3.184,0.418c-3.531,0.562-5.752-0.187-8.85-1.698c-1.932-0.942-4.187-0.584-6.125,0.054
			c-1.33,0.438-3.466,1.153-4.353,2.36c-0.666,0.907-4.384-1.043-4.937-1.291c-2.472-1.11-2.679-3.351-2.033-5.629
			c1.145-4.041,3.704-8.151,1.264-12.24c-0.452-0.757-2.7-1.786-1.987-3.057c0.562-1,0.725-1.694,1.004-2.895
			C5.399,12.747,5.858,8.23,6.619,3.771C6.792,2.759,5.245,2.326,5.071,3.344L5.071,3.344z"/>
	</g>
</g>
<g>
	<path fill-rule="evenodd" clip-rule="evenodd" fill="#FFFFFF" d="M84.756,16.448c-0.322,0-0.948,0.053-1.879,0.161v7.463
		c0.788,0.107,1.522,0.161,2.203,0.161c1.896,0,3.274-0.304,4.134-0.913c0.858-0.608,1.289-1.7,1.289-3.275
		c0-1.289-0.465-2.219-1.396-2.792C88.21,16.716,86.761,16.448,84.756,16.448z M82.233,13.656c1.503-0.108,2.595-0.161,3.274-0.161
		c5.548,0,8.322,2.201,8.322,6.603c0,1.468-0.447,2.774-1.343,3.919c-0.894,1.181-1.95,1.916-3.167,2.202l6.658,10.577h-3.597
		l-6.121-9.879c-0.716,0-1.844-0.053-3.383-0.161v10.04h-3.113V13.763C79.871,13.763,80.694,13.728,82.233,13.656z M99.038,16.019
		c0-0.43,0.161-0.806,0.483-1.128c0.287-0.322,0.662-0.483,1.128-0.483c0.429,0,0.806,0.161,1.127,0.483
		c0.322,0.322,0.484,0.698,0.484,1.128c0,0.429-0.162,0.805-0.484,1.127c-0.321,0.322-0.698,0.483-1.127,0.483
		c-0.43,0-0.805-0.161-1.128-0.483C99.199,16.824,99.038,16.448,99.038,16.019z M126.742,11.186l-4.94,25.61h-7.248l1.181-4.457
		h-1.772l-1.879,4.457h-7.355l12.081-25.61H126.742z M117.238,27.239c0.574-2.577,1.45-5.852,2.631-9.825
		c-1.968,4.617-3.364,7.893-4.188,9.825H117.238z M101.937,21.978v11.543c0,0.931,0.072,1.539,0.215,1.825
		c0.144,0.287,0.341,0.501,0.59,0.645c0.25,0.144,0.716,0.214,1.397,0.214v0.591h-6.98v-0.591c0.68,0,1.145-0.054,1.396-0.161
		c0.251-0.144,0.448-0.376,0.591-0.698c0.144-0.322,0.214-0.93,0.214-1.825v-5.53c0-1.575-0.053-2.595-0.161-3.06
		c-0.072-0.322-0.178-0.537-0.322-0.645c-0.18-0.143-0.394-0.214-0.645-0.214c-0.323,0-0.68,0.071-1.073,0.214l-0.215-0.537
		l4.295-1.772H101.937z M78.475,28.26c-0.966,2.792-2.434,4.975-4.402,6.549c-1.969,1.576-4.206,2.362-6.711,2.362
		c-2.507,0-4.207-0.787-5.101-2.362c-0.896-1.574-0.859-3.758,0.107-6.549c0.931-2.757,2.38-4.94,4.349-6.55
		c1.968-1.576,4.206-2.362,6.711-2.362s4.206,0.787,5.101,2.362C79.423,23.32,79.406,25.503,78.475,28.26z M68.542,23.427
		c-1.216,1.146-2.183,2.757-2.899,4.833c-0.681,2.075-0.805,3.686-0.375,4.832c0.429,1.181,1.396,1.771,2.899,1.771
		c1.503,0,2.863-0.59,4.081-1.771c1.253-1.146,2.219-2.756,2.899-4.832c0.715-2.076,0.841-3.687,0.375-4.833
		c-0.43-1.181-1.378-1.771-2.846-1.771C71.173,21.656,69.794,22.246,68.542,23.427z M57.374,23.481h-3.328v9.342
		c0,0.931,0.125,1.557,0.375,1.879c0.287,0.322,0.627,0.483,1.021,0.483c0.357,0,0.698-0.089,1.02-0.268
		c0.322-0.251,0.572-0.574,0.752-0.967h0.644c-0.393,1.002-0.913,1.772-1.557,2.309c-0.68,0.5-1.378,0.751-2.093,0.751
		c-0.501,0-0.967-0.125-1.397-0.376c-0.465-0.286-0.822-0.662-1.073-1.127c-0.214-0.501-0.322-1.27-0.322-2.309v-9.718h-2.254
		v-0.537c0.572-0.214,1.163-0.59,1.771-1.128c0.608-0.572,1.146-1.234,1.611-1.987c0.251-0.393,0.591-1.127,1.02-2.201h0.484v4.778
		h3.328V23.481z M8.625,18.38v-0.322c0-0.178,0.018-0.376,0.054-0.59l1.342-0.268c0.25-0.072,0.501-0.144,0.751-0.215
		c0.573-0.107,1.305-0.358,2.201-0.751c0.179-0.107,0.322-0.197,0.43-0.269l0.859,0.055v9.396c0.93-0.752,1.79-1.271,2.576-1.558
		c0.788-0.321,1.61-0.483,2.471-0.483c0.786,0,1.484,0.143,2.093,0.429c0.572,0.287,1.021,0.645,1.342,1.075
		c0.323,0.429,0.556,0.948,0.699,1.556c0.107,0.394,0.162,1.182,0.162,2.363l-0.055,6.389c0.035,0.107,0.071,0.179,0.107,0.214
		c0.144,0.036,0.465,0.108,0.966,0.215c0.288,0.036,0.501,0.089,0.645,0.161c0.072,0.143,0.107,0.269,0.107,0.375v0.108
		c-0.036,0.106-0.054,0.286-0.054,0.537H25c-0.179,0-0.501-0.018-0.967-0.054c-0.859-0.108-1.593-0.161-2.201-0.161
		c-0.395,0-0.913,0.036-1.557,0.108c-0.465,0-1.056,0-1.771,0c-0.108,0-0.215-0.018-0.323-0.055v-0.536
		c0-0.107,0.019-0.233,0.055-0.376c0.25-0.107,0.536-0.179,0.859-0.215c0.322-0.036,0.625-0.072,0.912-0.108
		c0.036-0.214,0.053-0.339,0.053-0.375l0.108-6.174c0-1.145-0.072-1.915-0.214-2.309c-0.107-0.394-0.359-0.716-0.752-0.966
		c-0.429-0.286-0.912-0.43-1.449-0.43c-0.68,0-1.324,0.162-1.932,0.483c-0.645,0.287-1.182,0.645-1.611,1.074v2.739
		c0,1.539-0.019,2.684-0.054,3.435c0,0.431,0,0.717,0,0.86c0,0.715,0.036,1.198,0.108,1.449c0.071,0.144,0.196,0.269,0.375,0.376
		c0.394,0.036,0.716,0.054,0.967,0.054s0.465,0.018,0.644,0.053c0,0.287,0,0.466,0,0.537c0,0.144-0.018,0.323-0.054,0.537
		l-1.772-0.053c-0.644-0.072-1.234-0.108-1.771-0.108l-2.201,0.161l-1.557-0.053c-0.108-0.144-0.215-0.394-0.322-0.752v-0.215
		c0.178-0.036,0.644-0.107,1.396-0.215c0.357-0.036,0.572-0.108,0.643-0.215c0.108-0.144,0.162-0.519,0.162-1.127l0.107-11.06
		c0-1.969-0.036-3.186-0.107-3.652c-0.072-0.25-0.233-0.465-0.483-0.643C10.074,18.667,9.52,18.523,8.625,18.38z M26.558,15.481
		h9.127v0.59h-0.752c-0.894,0-1.539,0.251-1.932,0.752c-0.252,0.322-0.377,1.127-0.377,2.416v13.798c0,1.074,0.073,1.79,0.215,2.147
		c0.106,0.25,0.322,0.465,0.644,0.644c0.465,0.251,0.949,0.376,1.45,0.376h0.752v0.591h-9.127v-0.591h0.75
		c0.896,0,1.54-0.25,1.934-0.751c0.25-0.358,0.375-1.163,0.375-2.416V19.239c0-1.073-0.071-1.79-0.215-2.147
		c-0.106-0.25-0.322-0.465-0.644-0.644c-0.465-0.25-0.949-0.376-1.45-0.376h-0.75V15.481z M47.872,18.005v3.919h-4.456V17.79
		c0-0.465-0.25-0.698-0.751-0.698c-0.608,0-0.914,0.448-0.914,1.342l0.108,1.45c0,0.824,0.554,1.79,1.664,2.899
		c2.075,2.005,3.382,3.401,3.919,4.188c0.572,0.788,0.859,1.665,0.859,2.632v2.899c0,3.006-1.915,4.509-5.746,4.509
		c-3.686,0-5.529-1.36-5.529-4.08v-5.155h4.509v5.155c0,0.537,0.305,0.806,0.914,0.806c0.608,0,0.912-0.269,0.912-0.806v-2.685
		c0-0.788-0.537-1.736-1.61-2.845c-2.111-2.041-3.437-3.419-3.973-4.135c-0.501-0.716-0.751-1.485-0.751-2.308v-2.524
		c0-2.935,1.915-4.402,5.745-4.402C46.171,14.032,47.872,15.356,47.872,18.005z"/>
</g>
</svg>
