<?xml version="1.0" encoding="utf-8"?>
<!-- Generator: Adobe Illustrator 16.0.0, SVG Export Plug-In . SVG Version: 6.00 Build 0)  -->
<!DOCTYPE svg PUBLIC "-//W3C//DTD SVG 1.1//EN" "http://www.w3.org/Graphics/SVG/1.1/DTD/svg11.dtd">
<svg version="1.1" id="Capa_1" xmlns="http://www.w3.org/2000/svg" xmlns:xlink="http://www.w3.org/1999/xlink" x="0px" y="0px"
	 width="237px" height="193.668px" viewBox="0 0 237 193.668" enable-background="new 0 0 237 193.668" xml:space="preserve">
<g>
	<g>
		<path fill="#FBF8CD" d="M5.115,30.749c0.973,11.673,7.891,20.286,11.458,31.312c1.297,3.891,0.865,9.729,5.405,10.701
			c3.891,0.973,11.35-3.243,15.565-4.216c11.998-2.27,24.32-5.513,36.318-5.837c11.674-0.324,23.672-0.648,35.346-1.297
			c12.322-0.648,25.293-2.27,37.94-2.27c4.216,0,22.051,2.594,25.618,0c2.919-2.27-1.297-13.295-1.621-17.511
			c-0.325-5.837-0.648-11.999-0.648-17.835c0-4.54,0.324-9.404-0.325-13.944c-0.973-6.81-4.215-5.837-11.025-5.837
			c-25.942,0-52.533,2.594-78.15,6.161c-15.241,2.27-32.103,3.784-47.344,7.351c-8.431,1.946-6.838,1.449-14.62,5.016
			c-2.271,0.973-14.564,4.712-16.51,5.685"/>
	</g>
	<g>
		<path fill="#C73535" d="M152.012,29.633c4.215,4.216,12.647,5.513,15.241-2.27c1.946-4.864-3.784-3.567-5.405-6.81
			c-1.945-3.567,1.838-5.621,4.756-2.702c3.243-9.728-13.944-5.405-13.62,1.081c0,3.567,6.485,2.27,7.458,6.161
			c0.973,4.54-4.54,3.567-7.458,3.567"/>
	</g>
	<g>
		<path fill="#C73535" d="M138.068,18.608c0,4.215-0.324,8.755-0.324,12.971c0,7.783,3.892,5.297,4.54-0.541
			c1.297,1.622,3.892,6.702,6.81,5.405c1.946-0.973,0.973-5.837,0.973-7.458c0-4.215,0.973-9.08,0.324-12.646
			c-6.388,0-1.729,6.485-3.675,9.08c-2.594-2.27-4.756-5.188-8.647-6.161"/>
	</g>
	<g>
		<g>
			<path fill="#C73535" d="M131.583,17.311c-6.161-6.81-8.215,0.325-9.188,5.513c-0.649,3.891-1.189,7.783-3.783,11.025l0.648,1.297
				c0.973,0.649,2.594,1.297,3.567,1.297c0.648-2.594,0.973-6.161,3.891-5.513c0.325,1.945,0.325,3.567,0.325,5.513
				c6.81,1.946,5.512-3.243,6.161-8.107C133.853,23.472,135.474,20.878,131.583,17.311z M125.098,24.661v-0.648
				c-0.973-4.215,2.27-7.134,3.567-2.27C129.637,24.985,127.692,25.958,125.098,24.661z"/>
		</g>
	</g>
	<g>
		<path fill="#C73535" d="M108.235,27.688c-1.297,2.918,0.324,9.728,4.54,6.485c2.918-2.27-2.594-9.512,4.54-7.891
			c0.324-0.648,0.648-2.486,0.973-3.135c-0.973-0.324-4.864-1.621-5.188-2.594c-1.945-4.215,2.919-1.513,4.864-2.486
			c2.918-1.622,6.149-7.75,0-7.242c-14.946,1.236-6.81,9.944-10.376,15.781"/>
	</g>
	<g>
		<g>
			<path fill="#C73535" d="M77.753,32.227c-0.648-3.243-3.891-2.594-6.486-3.891c2.919-5.513,3.892-10.052-4.215-8.431
				c-7.783,1.297-6.485,4.864-6.485,11.025l0.973-0.324c-1.621,5.188,4.54,11.025,9.728,9.404
				C73.862,39.361,78.402,35.47,77.753,32.227z M63.278,24.024l0.288-0.432c2.018-1.441,4.901-0.433,3.748,2.306
				C65.44,29.79,63.711,26.907,63.278,24.024z M71.206,34.69c-0.577,1.441-2.162,2.018-3.027,1.297
				c-0.72-0.721-0.72-2.594-1.585-3.459h-0.432C68.035,32.096,72.647,31.375,71.206,34.69z"/>
		</g>
	</g>
	<g>
		<path fill="#C73535" d="M41.435,28.012c-1.297,7.783,11.025,17.187,17.187,11.025c4.216-4.215,3.567-13.944,2.594-19.132
			c-8.107,0-1.946,8.431-5.513,11.998c-6.161,5.837-8.431-8.755-13.62-4.864"/>
	</g>
	<g>
		<path fill="#C73535" d="M30.409,28.012c0,3.891,0.973,16.862,5.513,18.483c0.324,0,9.621-2.594,10.593-3.243
			c3.243-1.945,1.405-3.891,1.405-7.783c-7.134,0.648-8.107,7.458-9.729-1.621c-0.973-6.485-1.297-9.728-8.107-6.81"/>
	</g>
	<g>
		<path fill="#C73535" d="M19.384,28.336c-6.161,0-4.864,12.647-2.594,15.889c4.865,6.81,16.538,7.459,13.944-3.567
			c-2.27,0.649-8.755,1.297-10.052-2.27c-0.648-1.946,10.024-6.101-1.297-9.404"/>
	</g>
	<g>
		<path fill="#663333" d="M106.132,59.79c-0.324,8.431-1.622,17.835-0.649,26.266c0.649,7.134,2.594,13.62,2.918,21.078
			c0.324,8.432,2.27,16.538,2.594,25.294c0,5.512-0.324,21.187,0.973,26.375c0.649,3.243,0.649-0.973,1.946,1.621
			c0,0.325,2.27-0.107,2.27,0.217c5.188-7.458,1.946-13.944,2.918-22.7c0.973-9.404,1.622-17.187-0.324-26.59
			c-2.594-12.971-1.513-24.969-0.216-37.94c0-3.242,0.108-7.458-0.541-10.701c-0.973-4.54-0.54-3.026-5.404-3.026
			c-1.946,0-3.892-0.865-5.513-0.541"/>
	</g>
	<g>
		<path fill="#E8C3C0" d="M63.649,126.588c-1.946,1.297-3.243,2.27-2.918,4.54c0.324,2.918,2.486,3.458,3.135,5.404
			c1.297,2.918-0.865,6.161,0.433,9.404c0.972,2.594,4.864,4.648,6.485,6.594c1.621,2.27,0.973,4.54,1.945,6.81
			c1.622,3.891,4.216,5.513,8.756,7.134c3.891,1.297,11.674,1.946,13.295-3.243c0.973-3.242-2.27-4.215-0.324-6.81
			c1.297-1.297,4.54-0.973,5.837-1.946c7.783-4.54,7.221-12.014,7.134-20.753c-0.039-3.918,7.458-3.891,6.81-8.106
			c-0.648-6.486-5.513,1.946-9.08,2.27c-0.648-2.594,0.541-6.486,0.216-8.755c-0.648-2.594-2.162-3.243-2.486-6.161
			c-0.324-2.27,0.649-4-1.621-5.621c-3.892-2.594-6.81,0.756-10.377,0.432c-3.243,0-7.269-0.531-10.053-1.621
			c-11.049-4.327-15.349-6.162-13.728,3.243c0.648,3.567,3.026,17.187-2.486,17.187"/>
	</g>
	<g>
		<path fill="#FFFFFF" d="M80.512,140.856c1.622,2.271,13.775,5.822,15.89,0.973c2.263-5.191-13.295-0.648-16.538-0.648"/>
	</g>
	<g>
		<path fill="#26231D" d="M68.838,114.59c2.918-0.973,6.486,2.378,9.08,3.675c3.243,1.297,4.216,0.432,7.783,1.729
			c4.864,1.621,5.296,2.486,9.836-0.432c2.27-1.946,6.702-5.296,6.702-8.54c-3.892-1.297-5.188,3.567-8.431,4.54
			c-1.297,0.324-6.81,0.648-7.783,0.648c-5.513,0-13.295-6.81-17.511-3.567"/>
	</g>
	<g>
		<path fill="#26231D" d="M62.676,122.48c0.324,2.918,6.161,9.944,6.485,3.135c1.622,0.973,3.567,1.946,5.513,2.594
			c-0.648-0.973-0.324-2.919-0.973-3.892c0.973,0.324,2.27,0.648,2.918,1.297c-1.622-6.162-10.377-11.999-9.08-19.132
			c1.621-8.107,11.349-1.946,15.565,0.324c5.188,2.918,5.513,2.594,10.377,1.297c3.243-0.648,5.837-0.973,7.783,1.622
			c0.973,1.297,0.324,3.567,0.973,4.864c0.648,1.946,2.918,2.594,3.567,4.54c0.648,2.594-0.648,6.161-0.973,8.755
			c5.837-3.891,4.215-5.188,4.215-11.025c0-5.836,2.918-7.783-2.27-13.295c-3.242-3.567-8.431-5.837-12.322-8.755
			c-3.243-2.27-7.134-3.567-11.025-5.188c-3.243-1.622-7.134-4.324-10.701-5.945c-3.891-1.621-7.458-3.783-11.674-3.459
			c-4.864,0.324-6.81,5.188-10.052,8.431c-3.243,3.243-4.54,4.864-3.567,9.728c0.648,3.243,1.188,5.513,1.513,8.432
			c0.649,3.243,0,7.242,3.567,9.512c0-0.648,0.541-1.621,0.865-1.945c2.918,1.297,9.296,7.35,9.62,11.242"/>
	</g>
	<g>
		<path fill="#1E1B16" d="M55.542,181.065c8.107,3.891,16.213,6.485,25.293,7.783c7.458,0.648,20.105,2.27,26.915-0.973
			c7.783-3.892,5.188-15.565,1.946-21.727c-2.27-4.216-4.54-4.864-8.431-6.81c-1.297-0.648-4.864-3.567-5.837-3.243
			c-2.594,0.973,0.324,3.891,0,5.837c-0.973,6.161-6.485,5.513-11.999,5.513c-7.458,0-8.755-4.215-11.998-10.052
			c-10.727,7.376-16.214,10.701-17.187,23.348"/>
	</g>
	<g>
		<path fill="#1E1B16" d="M110.431,165.703c0.649-6.702,4.324-10.377,9.945-12.972c1.513-0.648,6.053-2.594,7.783-1.946
			c1.513,0.648,2.594,2.595,3.459,3.675c0.648,0.433,2.162,1.729,2.811,1.946c5.837,1.514,12.539-4.107,18.16-2.81
			c4.973,1.297,11.242,11.025,13.836,15.349c1.514,2.595,6.702,12.107,4.324,14.269c-1.513,1.729-9.945,1.729-12.755,2.378
			c-3.026,0.432-5.837,0.432-8.864,0.432c-7.351,0-14.701,2.378-22.268,1.513c-3.026-0.432-16.301,1.851-19.111,0.337
			c-1.729-0.865,4.626-5.093,3.545-6.391c-2.811-2.811-1.297-14.917,0.216-18.809"/>
	</g>
	<g>
		<path fill="#E8C3C0" d="M131.834,116.626c-8.648,6.054,2.594,16.431,2.162,24.214c-0.433,4.756-3.892,10.81,0,13.836
			c2.162,1.729,8.215,0.865,11.242,0.865c11.675,0,15.134-10.81,17.296-20.754c0.865-5.621,3.459-9.513,3.459-14.702
			c0-2.161-0.865-3.891-0.433-5.621c0.433-3.026,2.594-3.891,3.027-6.486c2.162-7.783-0.433-9.08-6.918-11.674
			c-5.621-2.594-10.81-7.783-16.863-7.783c-6.918,0-12.107,3.459-14.269,9.512c-3.026,6.918,1.297,10.81,0.433,17.296"/>
	</g>
	<g>
		<path fill="#FFFFFF" d="M139.617,115.978c4.973,2.162,11.458,3.892,10.377-4.324c-1.081-7.567-10.593-1.729-10.377,3.459"/>
	</g>
	<g>
		<path fill="#FFFFFF" d="M161.669,118.356c3.675,0.649,6.27-3.892,3.459-6.485c-4.324-3.459-6.918,4.324-3.675,5.837"/>
	</g>
	<g>
		<path fill="#1E1B16" d="M163.183,107.979c1.513-0.432,3.243-0.864,4.756-1.729c-1.514-1.514-3.675-0.865-3.892,1.297"/>
	</g>
	<g>
		<path fill="#1E1B16" d="M139.617,103.439c1.297-0.216,3.459-0.433,4.756-0.216c1.946,0.432,3.027,1.946,4.756,2.378
			c0-0.865-2.162-5.405-3.027-6.053c-2.378-1.081-5.405,2.378-7.566,3.026"/>
	</g>
	<g>
		<path fill="#26231D" d="M128.592,118.572c-5.189-6.053-4.756-12.539-3.459-19.458c1.177-7.062,6.024-11.957,11.818-14.502
			c2.72-1.195,5.649-1.368,8.504-1.928c10.733-2.108,12.972-0.864,22.917,2.162c5.188,1.729,8.864-1.297,8.864,6.918
			c0,4.324-3.459,8.648-6.918,11.675c-0.432-2.162-0.865-4.324-1.297-5.621c-0.865,3.459-4.108,4.756-6.702,3.026
			c1.297-1.297,1.729-3.892,2.162-5.621c-6.486,0-3.389,9.988-11.242-1.297c-1.297,1.297-3.027,1.729-4.756,3.026
			c0.432-6.053-4.108-2.81-8-1.513c-1.729-2.594-6.27-6.27-7.134-1.081c-0.432,2.594,2.811,2.594,3.243,6.918
			c0,1.297-1.081,5.188-1.081,6.486c0,2.162,1.44,6.63,3.027,8.864c4.263,6.003-2.104,3.78-8.864,0.216"/>
	</g>
	<g>
		<path d="M156.556,138.082c-3.118,0-9.719-1.975-12.976-4.778c-1.283-1.104-1.973-2.261-2.051-3.439
			c-0.028-0.417,0.288-0.777,0.705-0.805c0.411-0.03,0.777,0.287,0.805,0.705c0.051,0.758,0.565,1.563,1.528,2.392
			c3.12,2.685,9.812,4.607,12.355,4.398c0.421-0.04,0.782,0.274,0.817,0.691s-0.274,0.782-0.691,0.817
			C156.896,138.076,156.731,138.082,156.556,138.082z"/>
	</g>
	<g>
		<path d="M153.073,129.586c-0.268,0-0.521-0.009-0.755-0.026c-0.417-0.03-0.73-0.392-0.701-0.809s0.391-0.729,0.809-0.701
			c1.878,0.134,4.872-0.304,5.421-2.064c0.36-1.151-0.246-1.99-1.286-3.235c-0.401-0.481-0.817-0.978-1.106-1.51
			c-1.822-3.34-1.822-7.424-1.822-11.028c0-0.418,0.339-0.757,0.757-0.757s0.757,0.339,0.757,0.757c0,3.423,0,7.302,1.637,10.303
			c0.219,0.401,0.569,0.82,0.94,1.264c0.98,1.174,2.2,2.635,1.568,4.657C158.512,128.934,155.303,129.586,153.073,129.586z"/>
	</g>
	<g>
		<path d="M147.328,119.617c-0.061,0-0.123-0.007-0.184-0.023c-0.638-0.159-1.321-0.282-2.044-0.412
			c-2.469-0.444-5.268-0.948-6.889-3.193c-0.245-0.339-0.168-0.812,0.17-1.056c0.338-0.244,0.812-0.169,1.056,0.17
			c1.264,1.75,3.636,2.177,5.931,2.589c0.715,0.129,1.455,0.262,2.143,0.434c0.405,0.101,0.652,0.512,0.55,0.917
			C147.976,119.388,147.667,119.617,147.328,119.617z"/>
	</g>
	<g>
		<path d="M147.184,119.906c-0.238,0-0.473-0.113-0.621-0.323c-0.239-0.342-0.156-0.814,0.186-1.054
			c1.577-1.104,2.809-3.925,2.748-6.29c-0.028-1.059-0.321-2.483-1.562-3.258c-1.786-1.13-3.374-0.673-4.391-0.09
			c-1.954,1.118-3.317,3.542-3.243,5.765c0.014,0.418-0.313,0.768-0.731,0.782c-0.426,0.014-0.768-0.313-0.782-0.731
			c-0.093-2.795,1.554-5.728,4.004-7.129c1.95-1.116,4.062-1.073,5.949,0.123c1.409,0.88,2.216,2.479,2.269,4.5
			c0.076,2.908-1.382,6.162-3.392,7.569C147.485,119.861,147.334,119.906,147.184,119.906z"/>
	</g>
	<g>
		<path d="M145.309,118.32c-0.145,0-0.291-0.041-0.419-0.127c-0.338-0.225-0.436-0.675-0.229-1.02
			c-0.929,0.341-2.103,0.194-2.957-0.42c-0.818-0.588-1.143-1.496-0.868-2.429c0.297-0.94,0.99-1.537,1.906-1.651
			c0.789-0.101,1.653,0.179,2.36,0.704c0.001,0,0.002,0,0.003,0c0.406-0.112,0.82,0.123,0.933,0.524
			c0.071,0.254,0.115,0.49,0.136,0.708c0.57,1.071,0.489,2.289-0.235,3.375C145.793,118.202,145.553,118.32,145.309,118.32z
			 M143.067,114.166c-0.047,0-0.093,0.003-0.138,0.008c-0.326,0.041-0.531,0.229-0.645,0.591c-0.054,0.184-0.086,0.479,0.304,0.759
			c0.509,0.365,1.339,0.42,1.775,0.114c0.181-0.127,0.285-0.32,0.31-0.579C144.28,114.537,143.614,114.166,143.067,114.166z"/>
	</g>
	<g>
		<path d="M162.019,119.331c-1.253,0-2.522-0.367-3.143-1.919c-0.497-1.363,0.212-3.201,0.837-4.823
			c0.25-0.647,0.485-1.259,0.565-1.66c0.083-0.41,0.483-0.672,0.891-0.594c0.41,0.082,0.675,0.48,0.594,0.891
			c-0.105,0.527-0.352,1.167-0.637,1.907c-0.477,1.236-1.129,2.93-0.835,3.739c0.452,1.128,1.614,1.042,3.335,0.782
			c0.332-0.05,0.646-0.098,0.93-0.123c0.411-0.042,0.784,0.269,0.822,0.685c0.038,0.416-0.269,0.784-0.685,0.822
			c-0.256,0.023-0.541,0.067-0.84,0.112C163.306,119.233,162.665,119.331,162.019,119.331z"/>
	</g>
	<g>
		<path d="M165.056,119.041c-0.263,0-0.518-0.137-0.658-0.381c-0.207-0.363-0.081-0.825,0.282-1.033
			c0.708-0.404,2.077-3.572,1.587-4.452c-0.281-0.561-1.464-1.271-2.736-1.439c-0.711-0.091-1.275,0.01-1.513,0.277
			c-0.278,0.312-0.755,0.342-1.068,0.063c-0.313-0.277-0.341-0.756-0.063-1.068c0.588-0.663,1.598-0.937,2.842-0.772
			c1.468,0.194,3.271,1.023,3.876,2.233c0.916,1.646-0.835,5.708-2.175,6.473C165.313,119.009,165.184,119.041,165.056,119.041z"/>
	</g>
	<g>
		<path d="M162.894,118.752c-0.104,0-0.211-0.022-0.313-0.068c-0.38-0.173-0.549-0.622-0.376-1.002
			c0.333-0.731-0.059-1.918-0.466-2.166c-0.165-0.1-0.419,0.178-0.556,0.353c-0.259,0.328-0.734,0.385-1.063,0.128
			c-0.329-0.258-0.386-0.734-0.128-1.063c1.111-1.413,2.22-0.901,2.533-0.711c1.131,0.688,1.665,2.749,1.058,4.085
			C163.456,118.587,163.181,118.752,162.894,118.752z"/>
	</g>
	<g>
		<path d="M150.347,106.822c-1.533,0-2.773-0.594-3.977-1.171c-0.758-0.364-1.474-0.707-2.253-0.902
			c-1.24-0.38-2.483-0.206-3.801-0.022c-0.526,0.074-1.052,0.147-1.579,0.188c-0.408,0.034-0.78-0.28-0.813-0.696
			c-0.009-0.117,0.009-0.23,0.049-0.333c-0.065-0.075-0.122-0.157-0.169-0.248c-0.137-0.261-0.297-0.807,0.169-1.518
			c0.974-1.486,4.726-3.449,6.38-3.326c1.994,0.142,2.777,1.552,3.406,2.684c0.156,0.28,0.311,0.56,0.484,0.821
			c0.305,0.339,0.765,0.724,1.252,1.132c0.784,0.656,1.595,1.335,2.095,2.235c0.123,0.222,0.127,0.49,0.011,0.715
			s-0.337,0.377-0.589,0.405C150.786,106.811,150.563,106.822,150.347,106.822z M142.5,103.007c0.664,0,1.338,0.074,2.023,0.285
			c0.889,0.221,1.708,0.614,2.501,0.994c0.723,0.347,1.422,0.682,2.162,0.869c-0.21-0.188-0.434-0.375-0.661-0.564
			c-0.51-0.427-1.037-0.869-1.479-1.375c-0.257-0.373-0.433-0.688-0.608-1.004c-0.648-1.167-1.069-1.83-2.191-1.91
			c-1.232-0.099-4.527,1.802-5.018,2.644c0.158,0.061,0.504,0.15,1.2,0.169c0.077,0.002,0.15,0.015,0.219,0.038
			C141.257,103.073,141.875,103.007,142.5,103.007z"/>
	</g>
	<g>
		<path d="M160.876,109.673c-0.418,0-0.757-0.339-0.757-0.757s0.339-0.757,0.757-0.757c0.087,0,0.171-0.001,0.253-0.002
			c0.015-0.294,0.203-0.565,0.497-0.672c0.65-0.237,1.023-0.706,1.455-1.249c0.42-0.529,0.897-1.128,1.667-1.471
			c0.825-0.413,3.091-0.548,3.94,0.392c0.214,0.238,0.646,0.895,0.032,1.859c-0.029,0.046-0.064,0.09-0.103,0.129
			c-0.168,0.167-0.315,0.232-1.752,0.762c-0.66,0.243-1.764,0.651-1.971,0.777c-0.028,0.017-0.078,0.045-0.107,0.058
			C163.449,109.336,162.608,109.673,160.876,109.673z M166.471,105.97c-0.424,0-0.856,0.053-1.077,0.164
			c-0.462,0.207-0.771,0.595-1.128,1.044c-0.056,0.071-0.114,0.144-0.174,0.218c0.012-0.005,0.024-0.01,0.036-0.016
			c0.312-0.182,0.971-0.434,2.214-0.892c0.348-0.128,0.785-0.29,1.069-0.401C167.197,106.009,166.837,105.97,166.471,105.97z"/>
	</g>
	<g>
		<path d="M136.853,121.596c-0.049,0-0.098-0.002-0.146-0.006c-1.125-0.087-1.941-1.146-2.73-2.169
			c-0.701-0.91-1.426-1.851-2.182-1.938c-0.373-0.042-0.798,0.127-1.284,0.523c-0.193,0.157-0.452,0.208-0.689,0.14
			c-0.239-0.069-0.428-0.251-0.507-0.487c-0.015-0.045-0.049-0.099-0.091-0.155c-0.022,0.019-0.045,0.039-0.067,0.058
			c-0.235,0.202-0.472,0.403-0.606,0.537c-0.158,0.158-0.378,0.239-0.601,0.219c-0.223-0.02-0.426-0.137-0.554-0.32
			c-1.292-1.844-1.748-3.92-2.188-5.927c-0.29-1.32-0.563-2.567-1.058-3.722c-1.282-3.096-0.518-5.264,0.221-7.361
			c0.345-0.979,0.702-1.992,0.879-3.141c0.042-0.433,0.02-0.894-0.003-1.382c-0.044-0.914-0.09-1.86,0.348-2.845
			c0.534-1.39,1.615-2.332,2.661-3.243c0.493-0.429,0.958-0.834,1.359-1.281c0.165-0.239,0.244-0.468,0.328-0.711
			c0.196-0.57,0.415-1.048,1.275-1.586c0.485-0.292,1.034-0.349,1.564-0.404c0.435-0.045,0.885-0.092,1.102-0.266
			c0.604-0.419,0.946-0.865,1.278-1.297c0.705-0.917,1.434-1.87,3.701-1.75l0.106-0.001c0.418,0,0.757,0.339,0.757,0.757
			s-0.339,0.757-0.757,0.757h-0.144c-1.511-0.079-1.85,0.364-2.464,1.161c-0.365,0.475-0.819,1.064-1.574,1.587
			c-0.521,0.42-1.227,0.494-1.849,0.559c-0.366,0.038-0.745,0.078-0.93,0.189c-0.463,0.29-0.51,0.425-0.635,0.788
			c-0.099,0.287-0.234,0.681-0.58,1.165c-0.517,0.581-1.039,1.036-1.544,1.476c-0.948,0.826-1.844,1.606-2.257,2.681
			c-0.307,0.692-0.273,1.388-0.234,2.193c0.025,0.521,0.051,1.061-0.007,1.645c-0.203,1.329-0.584,2.409-0.952,3.454
			c-0.732,2.078-1.311,3.718-0.254,6.271c0.547,1.278,0.85,2.654,1.142,3.984c0.364,1.659,0.711,3.239,1.497,4.658
			c0.231-0.199,0.462-0.396,0.595-0.528c0.172-0.172,0.414-0.25,0.656-0.212c0.24,0.039,0.447,0.191,0.556,0.409
			c0.019,0.032,0.103,0.125,0.165,0.192c0.028,0.031,0.058,0.064,0.089,0.099c0.579-0.319,1.157-0.448,1.727-0.383
			c1.39,0.161,2.355,1.413,3.207,2.517c0.56,0.726,1.194,1.549,1.648,1.584c0.178,0.017,0.374-0.098,0.616-0.328
			c1.347-1.18,0.599-2.343-1.296-4.544c-1.248-1.448-2.426-2.816-1.923-4.239c0.139-0.394,0.569-0.603,0.965-0.461
			c0.394,0.139,0.601,0.571,0.461,0.965c-0.21,0.596,0.774,1.739,1.643,2.748c1.59,1.846,3.768,4.375,1.169,6.65
			C137.958,121.347,137.413,121.596,136.853,121.596z"/>
	</g>
	<g>
		<path d="M170.243,104.052c-0.357,0-0.674-0.254-0.743-0.617c-0.077-0.411,0.193-0.806,0.604-0.883
			c4.15-0.778,7.001-7.93,6.593-12.009c-0.419-3.77-3.509-5.349-6.423-5.229c-2.76,0.136-5.765-0.303-9.184-1.329
			c-0.89-0.213-1.777-0.459-2.645-0.699c-3.061-0.847-5.705-1.58-9.151-1.148c-3.757,0.49-7.824,1.898-9.913,2.694
			c-0.39,0.148-0.828-0.047-0.977-0.438s0.047-0.828,0.438-0.977c2.152-0.819,6.346-2.271,10.26-2.782
			c3.752-0.467,6.663,0.338,9.747,1.191c0.852,0.236,1.723,0.477,2.636,0.698c3.291,0.985,6.128,1.4,8.722,1.277
			c4.254-0.175,7.545,2.536,7.995,6.582c0.473,4.729-2.842,12.721-7.819,13.655C170.336,104.047,170.29,104.052,170.243,104.052z"/>
	</g>
	<g>
		<path d="M168.948,104.052c-0.209,0-0.417-0.086-0.566-0.254c-0.278-0.313-0.25-0.791,0.063-1.068
			c0.308-0.274,0.638-1.182,0.679-2.593c0.047-1.594-0.299-2.813-0.567-3.081c-0.295-0.295-0.295-0.775,0-1.07
			c0.296-0.295,0.774-0.295,1.07,0c0.812,0.812,1.051,2.768,1.009,4.196c-0.029,1.006-0.223,2.823-1.186,3.679
			C169.306,103.989,169.126,104.052,168.948,104.052z"/>
	</g>
	<g>
		<path d="M164.787,101.462c-1.264,0-2.543-0.246-3.593-0.627c-0.237-0.086-0.415-0.284-0.476-0.528
			c-0.061-0.244,0.003-0.502,0.172-0.689c0.257-0.286,0.541-0.561,0.824-0.835c1.255-1.214,1.879-1.909,1.223-3.221
			c-0.187-0.374-0.036-0.828,0.338-1.015c0.373-0.186,0.828-0.035,1.015,0.338c1.139,2.278-0.27,3.767-1.396,4.861
			c1.722,0.36,3.729,0.277,4.859-0.601c0.695-0.541,0.98-1.327,0.873-2.404c-0.042-0.416,0.262-0.787,0.678-0.828
			c0.407-0.04,0.786,0.262,0.828,0.678c0.201,2.011-0.677,3.149-1.449,3.75C167.65,101.143,166.229,101.462,164.787,101.462z"/>
	</g>
	<g>
		<path d="M159.147,101.746c-0.228,0-0.451-0.103-0.598-0.292c-0.36-0.463-0.877-0.863-1.424-1.286
			c-0.831-0.643-1.771-1.371-2.271-2.469c-0.64-1.146-0.58-2.575-0.527-3.836c0.014-0.323,0.027-0.641,0.027-0.945
			c0-0.418,0.339-0.757,0.757-0.757s0.757,0.339,0.757,0.757c0,0.325-0.014,0.664-0.028,1.009c-0.047,1.113-0.095,2.264,0.365,3.092
			c0.371,0.811,1.088,1.365,1.846,1.952c0.124,0.096,0.248,0.192,0.372,0.29c0.327-1.174,1.229-2.006,2.057-2.768
			c0.791-0.728,1.537-1.416,1.836-2.362c0.126-0.399,0.548-0.62,0.95-0.494c0.398,0.126,0.619,0.551,0.494,0.95
			c-0.42,1.331-1.395,2.228-2.254,3.019c-1.242,1.143-1.929,1.856-1.621,3.215c0.079,0.346-0.093,0.7-0.414,0.852
			C159.367,101.722,159.256,101.746,159.147,101.746z"/>
	</g>
	<g>
		<path d="M147.904,98.286c-0.226,0-0.446-0.102-0.592-0.286c-0.2-0.252-0.219-0.603-0.047-0.875
			c0.796-1.261,1.037-2.42,0.643-3.101c-0.41-0.709-1.468-0.814-2.278-0.783c-0.409,0.017-0.771-0.307-0.788-0.724
			c-0.018-0.417,0.307-0.771,0.724-0.788c2.232-0.098,3.216,0.784,3.651,1.536c0.458,0.792,0.505,1.805,0.159,2.914
			c2.23-0.89,3.756-1.883,4.44-3.934c0.131-0.396,0.559-0.61,0.957-0.479c0.396,0.132,0.611,0.561,0.479,0.957
			c-1.145,3.436-4.308,4.542-7.098,5.519C148.072,98.272,147.988,98.286,147.904,98.286z"/>
	</g>
	<g>
		<path d="M139.949,96.456c-0.26,0-0.522-0.017-0.787-0.049c-0.32-0.04-0.58-0.279-0.646-0.595
			c-0.067-0.316,0.074-0.639,0.351-0.805c0.136-0.082,0.806-0.5,0.678-0.75c-0.455-0.89-3.748-1.71-4.891-1.221
			c-0.386,0.166-0.83-0.014-0.994-0.397c-0.165-0.384,0.013-0.829,0.397-0.994c1.783-0.764,5.957,0.205,6.835,1.922
			c0.126,0.248,0.286,0.707,0.116,1.25c0.502-0.123,0.958-0.336,1.334-0.631c0.609-0.478,0.967-1.129,1.062-1.935
			c0.049-0.414,0.423-0.709,0.84-0.663c0.415,0.049,0.712,0.425,0.663,0.84c-0.142,1.204-0.706,2.224-1.631,2.949
			C142.384,96.079,141.202,96.456,139.949,96.456z"/>
	</g>
	<g>
		<path d="M135.221,111.547c-0.069,0-0.139-0.009-0.208-0.029c-0.402-0.115-0.634-0.534-0.52-0.936l0.185-0.64
			c0.504-1.737,0.939-3.238,0.939-5.062c0-0.507-0.109-1.155-0.224-1.841c-0.243-1.449-0.531-3.163,0.156-4.342
			c-1.455-0.584-3.747-1.741-3.936-3.29c-0.069-0.568,0.109-1.398,1.35-2.131c0.359-0.212,0.824-0.093,1.036,0.267
			c0.213,0.36,0.093,0.824-0.267,1.036c-0.4,0.236-0.636,0.484-0.617,0.646c0.086,0.708,2.287,1.917,4.052,2.446
			c0.297,0.089,0.51,0.35,0.537,0.659s-0.138,0.604-0.416,0.742c-0.879,0.44-0.722,1.818-0.403,3.717
			c0.126,0.75,0.245,1.459,0.245,2.092c0,2.039-0.486,3.712-1,5.484l-0.183,0.634C135.854,111.33,135.55,111.547,135.221,111.547z"
			/>
	</g>
	<g>
		<path d="M131.617,125.527c-0.329,0-0.632-0.216-0.727-0.549c-0.396-1.382,0.087-2.853,1.173-3.576
			c0.347-0.232,0.817-0.137,1.049,0.21c0.231,0.348,0.138,0.817-0.21,1.049c-0.544,0.362-0.773,1.144-0.557,1.9
			c0.115,0.402-0.118,0.821-0.52,0.936C131.756,125.518,131.686,125.527,131.617,125.527z"/>
	</g>
	<g>
		<path d="M131.603,130.467c-2.424,0-3.681-1.238-4.318-2.338c-1.868-3.223-0.52-8.667,1.269-11.151
			c0.244-0.339,0.718-0.416,1.056-0.172c0.339,0.244,0.417,0.717,0.172,1.056c-1.681,2.335-2.585,7.097-1.188,9.508
			c0.71,1.225,1.911,1.73,3.666,1.549c0.41-0.048,0.787,0.258,0.831,0.674c0.043,0.416-0.258,0.788-0.674,0.831
			C132.132,130.453,131.861,130.467,131.603,130.467z"/>
	</g>
	<g>
		<path d="M163.614,130.716c-0.395,0-0.727-0.307-0.754-0.707c-0.117-1.747,0.734-2.952,1.484-4.015
			c0.335-0.475,0.652-0.923,0.899-1.418c0.549-1.258,0.382-2.21,0.171-3.416c-0.118-0.67-0.251-1.43-0.251-2.3
			c0-0.418,0.339-0.757,0.757-0.757s0.757,0.339,0.757,0.757c0,0.738,0.116,1.399,0.228,2.039c0.225,1.282,0.457,2.607-0.292,4.318
			c-0.315,0.633-0.68,1.149-1.033,1.649c-0.693,0.982-1.292,1.83-1.211,3.042c0.028,0.417-0.288,0.777-0.705,0.805
			C163.648,130.715,163.631,130.716,163.614,130.716z"/>
	</g>
	<g>
		<path d="M151.202,152.621c-5.451,0-8.626-3.152-11.577-7.846l-0.421-0.641c-2.357-3.578-6.745-10.237-4.332-14.006
			c0.226-0.353,0.695-0.455,1.045-0.229c0.352,0.225,0.455,0.693,0.229,1.045c-1.883,2.942,2.465,9.54,4.321,12.358l0.432,0.658
			c3.097,4.928,6.222,7.815,12.237,7.013c0.421-0.053,0.795,0.236,0.85,0.65c0.055,0.415-0.236,0.795-0.65,0.85
			C152.588,152.572,151.877,152.621,151.202,152.621z"/>
	</g>
	<g>
		<path d="M153.957,152.623c-0.388,0-0.719-0.297-0.753-0.691c-0.036-0.416,0.272-0.783,0.688-0.819
			c2.625-0.228,5.474-6.344,6.691-8.955l0.33-0.704c1.351-3.246,1.945-6.725,1.801-10.602c-0.015-0.418,0.311-0.769,0.728-0.785
			c0.434,0.016,0.77,0.311,0.785,0.728c0.152,4.101-0.479,7.788-1.931,11.273l-0.34,0.728c-1.55,3.327-4.435,9.52-7.932,9.824
			C154.001,152.622,153.979,152.623,153.957,152.623z"/>
	</g>
	<g>
		<path d="M129.599,151.326c-0.178,0-0.356-0.063-0.5-0.189c-0.313-0.276-0.343-0.755-0.067-1.068
			c3.083-3.495,2.646-9.552,2.261-14.896c-0.127-1.763-0.248-3.428-0.248-4.966c0-0.418,0.339-0.757,0.757-0.757
			s0.757,0.339,0.757,0.757c0,1.484,0.118,3.123,0.243,4.857c0.407,5.641,0.869,12.035-2.635,16.006
			C130.018,151.239,129.809,151.326,129.599,151.326z"/>
	</g>
	<g>
		<path d="M139.88,157.192c-2.852,0-5.585-0.44-7.52-1.698c-1.594-1.037-2.486-2.527-2.65-4.427
			c-0.036-0.416,0.272-0.783,0.689-0.819c0.402-0.04,0.782,0.272,0.819,0.689c0.124,1.432,0.767,2.508,1.967,3.289
			c4.535,2.95,15.365,0.628,18.796-0.552c0.396-0.135,0.826,0.075,0.961,0.47c0.136,0.396-0.074,0.826-0.469,0.962
			C150.627,155.739,145.061,157.192,139.88,157.192z"/>
	</g>
	<g>
		<path d="M110.574,165.307c-0.156,0-0.313-0.048-0.448-0.147c-0.336-0.248-0.408-0.722-0.161-1.058
			c0.847-1.149,1.505-2.507,2.203-3.945c0.894-1.843,1.818-3.749,3.189-5.206c2.967-3.355,7.396-4.995,13.522-4.995
			c0.418,0,0.757,0.339,0.757,0.757s-0.339,0.757-0.757,0.757c-5.667,0-9.725,1.472-12.404,4.501
			c-1.228,1.305-2.062,3.025-2.945,4.846c-0.696,1.436-1.416,2.921-2.345,4.182C111.036,165.201,110.806,165.307,110.574,165.307z"
			/>
	</g>
	<g>
		<path d="M170.244,181.882c-0.312,0-0.603-0.194-0.713-0.504c-0.591-1.666-0.968-3.354-1.332-4.986
			c-0.639-2.862-1.243-5.566-2.911-8.113c-1.548-2.257-3.643-4.347-5.669-6.368c-2.421-2.415-4.923-4.911-6.603-7.79
			c-0.21-0.361-0.088-0.824,0.272-1.035c0.361-0.209,0.824-0.089,1.035,0.272c1.58,2.708,4.012,5.135,6.364,7.48
			c2.075,2.07,4.221,4.21,5.857,6.597c1.829,2.791,2.491,5.757,3.131,8.625c0.354,1.588,0.721,3.23,1.282,4.81
			c0.14,0.394-0.066,0.826-0.46,0.966C170.414,181.868,170.328,181.882,170.244,181.882z"/>
	</g>
	<g>
		<path fill="#FFFFFF" d="M155.687,183.179c-0.331,0-0.635-0.219-0.729-0.553c-1.815-6.506-5.385-9.536-11.233-9.536
			c-0.711,0-1.474-0.028-2.266-0.058c-3.467-0.127-7.394-0.275-9.765,1.879c-2.147,1.895-4.291,4.689-6.043,7.876
			c-0.202,0.366-0.663,0.499-1.028,0.298c-0.366-0.202-0.5-0.662-0.298-1.028c1.834-3.335,4.093-6.273,6.36-8.274
			c2.819-2.564,7.263-2.397,10.83-2.264c0.772,0.029,1.517,0.057,2.209,0.057c6.542,0,10.693,3.481,12.691,10.642
			c0.112,0.403-0.123,0.82-0.525,0.933C155.822,183.17,155.754,183.179,155.687,183.179z"/>
	</g>
	<g>
		<path fill="#FFFFFF" d="M135.22,185.052c-0.174,0-0.349-0.06-0.492-0.182c-0.317-0.272-0.354-0.75-0.082-1.067
			c0.835-0.974,2.038-1.828,3.2-2.653c1.303-0.925,2.65-1.882,3.203-2.851c0.207-0.362,0.669-0.488,1.033-0.282
			c0.363,0.208,0.489,0.67,0.282,1.033c-0.719,1.259-2.205,2.314-3.642,3.334c-1.088,0.772-2.213,1.571-2.927,2.404
			C135.646,184.962,135.434,185.052,135.22,185.052z"/>
	</g>
	<g>
		<path fill="#FFFFFF" d="M138.969,184.332c-0.217,0-0.432-0.093-0.582-0.272c-0.825-0.991-1.794-1.828-2.819-2.714
			c-0.679-0.587-1.381-1.194-2.035-1.847c-0.295-0.295-0.295-0.775,0-1.07c0.296-0.295,0.774-0.295,1.07,0
			c0.615,0.615,1.295,1.203,1.954,1.772c1.026,0.887,2.088,1.805,2.993,2.891c0.267,0.321,0.224,0.798-0.097,1.066
			C139.311,184.274,139.14,184.332,138.969,184.332z"/>
	</g>
	<g>
		<path fill="#FFFFFF" d="M147.039,185.773c-0.114,0-0.229-0.026-0.338-0.08c-0.374-0.187-0.525-0.642-0.338-1.015
			c0.73-1.461,1.91-2.364,3.05-3.237c0.58-0.443,1.179-0.902,1.704-1.427c0.296-0.295,0.774-0.295,1.07,0
			c0.295,0.295,0.295,0.775,0,1.07c-0.596,0.595-1.235,1.085-1.854,1.559c-1.05,0.804-2.042,1.564-2.617,2.712
			C147.584,185.62,147.316,185.773,147.039,185.773z"/>
	</g>
	<g>
		<path fill="#FFFFFF" d="M151.796,184.765c-0.194,0-0.387-0.074-0.535-0.222c-0.288-0.289-0.577-0.588-0.868-0.891
			c-1.137-1.182-2.313-2.404-3.712-3.158c-0.368-0.198-0.505-0.657-0.307-1.025s0.657-0.505,1.025-0.307
			c1.607,0.866,2.867,2.175,4.085,3.441c0.285,0.296,0.566,0.589,0.848,0.87c0.295,0.295,0.295,0.775,0,1.07
			C152.183,184.69,151.99,184.765,151.796,184.765z"/>
	</g>
	<g>
		<path d="M110.287,181.45c-0.009,0-0.017,0-0.026,0c-0.417-0.014-0.745-0.364-0.731-0.782c0.039-1.161,0.177-2.477,0.324-3.871
			c0.402-3.826,0.858-8.163-0.537-11.053c-1.352-2.432-4.509-4.07-7.562-5.655c-1.457-0.756-2.832-1.47-4-2.265
			c-0.346-0.235-0.436-0.706-0.2-1.051c0.235-0.346,0.706-0.435,1.051-0.2c1.095,0.744,2.432,1.438,3.847,2.172
			c3.252,1.688,6.615,3.433,8.208,6.301c1.602,3.316,1.122,7.881,0.699,11.908c-0.144,1.366-0.279,2.656-0.316,3.763
			C111.029,181.127,110.693,181.45,110.287,181.45z"/>
	</g>
	<g>
		<path d="M55.805,180.873c-0.418,0-0.757-0.339-0.757-0.757c0-3.887,1.049-8.299,2.953-12.424c1.286-2.858,2.982-4.729,6.048-6.665
			c0.5-0.334,1.277-0.709,2.176-1.144c1.829-0.884,4.891-2.363,4.967-3.597c0.026-0.417,0.375-0.732,0.803-0.708
			c0.417,0.026,0.734,0.385,0.708,0.803c-0.132,2.117-3.286,3.641-5.82,4.865c-0.813,0.393-1.581,0.764-2.01,1.05
			c-2.805,1.771-4.341,3.457-5.495,6.023c-1.817,3.937-2.816,8.124-2.816,11.796C56.562,180.534,56.223,180.873,55.805,180.873z"/>
	</g>
	<g>
		<path d="M89.45,168.303c-1.423,0-2.874-0.122-4.206-0.233c-1.037-0.086-2.017-0.168-2.775-0.168
			c-3.738-0.093-7.046-1.586-8.867-3.994c-1.484-1.961-1.911-4.396-1.234-7.04c0.104-0.405,0.514-0.65,0.92-0.545
			c0.405,0.104,0.649,0.516,0.545,0.92c-0.558,2.182-0.221,4.171,0.975,5.752c1.546,2.043,4.417,3.312,7.68,3.394
			c0.001,0,0.002,0,0.003,0c0.802,0,1.811,0.084,2.879,0.174c3.151,0.264,7.467,0.625,9.42-1.133
			c1.734-1.508,1.265-2.319,0.413-3.791c-0.458-0.792-0.978-1.689-1.092-2.774c-0.044-0.416,0.258-0.788,0.673-0.832
			c0.415-0.043,0.788,0.258,0.832,0.673c0.081,0.764,0.477,1.449,0.896,2.174c0.867,1.499,1.947,3.364-0.72,5.682
			C94.258,167.945,91.895,168.303,89.45,168.303z"/>
	</g>
	<g>
		<path d="M78.721,157.091c-0.099,0-0.199-0.02-0.295-0.06c-6.589-2.795-11.075-5.844-13.711-9.319
			c-4.053-4.988-1.918-12.419,2.394-16.433c0.307-0.285,0.786-0.268,1.069,0.038c0.285,0.306,0.268,0.785-0.038,1.069
			c-3.813,3.55-5.752,10.062-2.234,14.391c2.488,3.279,6.772,6.17,13.112,8.86c0.385,0.164,0.564,0.607,0.401,0.992
			C79.296,156.918,79.016,157.091,78.721,157.091z"/>
	</g>
	<g>
		<path d="M87.606,159.409c-0.139,0-0.281-0.004-0.425-0.013c-0.972-0.065-2.103-0.338-3.196-0.603
			c-1.429-0.346-2.909-0.703-3.851-0.557c-0.411,0.064-0.8-0.219-0.863-0.633c-0.063-0.413,0.22-0.799,0.633-0.863
			c1.241-0.188,2.866,0.202,4.437,0.583c1.032,0.25,2.099,0.508,2.935,0.563c1.264,0.075,2.3-0.294,3.398-0.685
			c0.86-0.305,1.75-0.622,2.799-0.753c0.41-0.055,0.793,0.242,0.845,0.657c0.052,0.415-0.242,0.792-0.657,0.845
			c-0.886,0.111-1.66,0.386-2.48,0.677C90.098,159.012,88.982,159.409,87.606,159.409z"/>
	</g>
	<g>
		<path d="M95.153,158.101c-0.27,0-0.531-0.145-0.667-0.399c-0.197-0.369-0.059-0.827,0.31-1.024
			c1.008-0.54,2.127-1.004,3.209-1.454c3.403-1.413,6.618-2.747,7.511-6.417c0.911-3.341,3.667-13.446,0.82-17.86
			c-0.227-0.351-0.125-0.819,0.226-1.046c0.351-0.226,0.82-0.126,1.046,0.226c2.88,4.464,1.022,13.015-0.626,19.058
			c-1.069,4.396-4.962,6.012-8.396,7.438c-1.096,0.455-2.132,0.885-3.074,1.39C95.396,158.072,95.273,158.101,95.153,158.101z"/>
	</g>
	<g>
		<path d="M73.1,144.409c-0.114,0-0.229-0.026-0.338-0.08c-0.374-0.187-0.525-0.641-0.338-1.015
			c0.719-1.438,1.766-2.666,2.778-3.854c1.968-2.308,3.667-4.301,3.064-7.486c-0.078-0.411,0.192-0.807,0.603-0.884
			c0.404-0.079,0.806,0.192,0.884,0.603c0.737,3.896-1.366,6.363-3.4,8.749c-0.954,1.118-1.939,2.274-2.576,3.548
			C73.645,144.255,73.377,144.409,73.1,144.409z"/>
	</g>
	<g>
		<path d="M102.502,143.111c-0.131,0-0.264-0.034-0.384-0.105c-3.365-1.988-4.198-6.747-3.532-10.582
			c0.072-0.412,0.47-0.682,0.875-0.616c0.412,0.072,0.688,0.463,0.616,0.875c-0.559,3.215,0.083,7.409,2.81,9.021
			c0.36,0.212,0.479,0.676,0.267,1.036C103.013,142.979,102.761,143.111,102.502,143.111z"/>
	</g>
	<g>
		<path d="M97.603,142.391c-0.071,0-0.143-0.01-0.214-0.031c-0.939-0.276-1.742-0.645-2.519-1.001c-1.32-0.606-2.46-1.13-4.042-1.13
			c-2.385,0-4.882,0.315-7.296,0.621c-1.611,0.204-3.277,0.415-4.9,0.531c-0.421,0.017-0.779-0.284-0.809-0.701
			c-0.03-0.417,0.284-0.779,0.701-0.809c1.583-0.113,3.228-0.321,4.819-0.522c2.461-0.312,5.006-0.633,7.486-0.633
			c1.913,0,3.316,0.645,4.674,1.268c0.727,0.334,1.479,0.68,2.313,0.925c0.401,0.118,0.63,0.539,0.513,0.939
			C98.231,142.177,97.93,142.391,97.603,142.391z"/>
	</g>
	<g>
		<path d="M85.496,144.12c-0.061,0-0.123-0.008-0.184-0.023c-0.386-0.096-0.801-0.068-1.238-0.04
			c-1.251,0.084-2.806,0.187-4.156-2.518c-0.187-0.374-0.035-0.828,0.339-1.015c0.374-0.183,0.828-0.035,1.015,0.339
			c0.9,1.803,1.615,1.755,2.701,1.684c0.155-0.01,0.316-0.021,0.483-0.027c-0.303-0.542-0.791-1.125-1.158-1.565l-0.113-0.135
			c-0.267-0.321-0.224-0.798,0.097-1.066s0.797-0.224,1.066,0.097l0.111,0.134c0.799,0.956,1.793,2.146,1.793,3.377
			c0,0.233-0.107,0.453-0.291,0.596C85.827,144.064,85.663,144.12,85.496,144.12z"/>
	</g>
	<g>
		<path d="M88.417,145.133c-1.49,0-2.923-1.57-4.084-2.842c-0.352-0.386-0.685-0.75-0.915-0.947
			c-0.317-0.272-0.354-0.75-0.083-1.067c0.272-0.318,0.749-0.354,1.067-0.083c0.301,0.258,0.647,0.637,1.048,1.076
			c0.826,0.905,2.204,2.399,3.003,2.349c0.41-0.046,0.791-1.606,0.613-3.199c-0.046-0.416,0.253-0.79,0.668-0.836
			c0.424-0.051,0.79,0.252,0.836,0.668c0.177,1.59-0.006,4.654-1.965,4.872C88.543,145.13,88.48,145.133,88.417,145.133z"/>
	</g>
	<g>
		<path d="M90.611,145.775c-0.563,0-1.072-0.295-1.428-0.849c-0.226-0.352-0.125-0.82,0.227-1.045
			c0.352-0.225,0.82-0.125,1.045,0.227c0.115,0.178,0.148,0.169,0.242,0.136c0.965-0.337,2.336-2.932,2.26-3.687
			c-0.042-0.416,0.262-0.787,0.678-0.828c0.408-0.042,0.787,0.261,0.828,0.678c0.139,1.386-1.544,4.665-3.268,5.267
			C90.998,145.741,90.802,145.775,90.611,145.775z"/>
	</g>
	<g>
		<path d="M93.787,144.333c-0.132,0-0.263-0.021-0.39-0.067c-1.058-0.381-0.803-1.848-0.719-2.33
			c0.072-0.412,0.464-0.682,0.875-0.616c0.412,0.072,0.687,0.463,0.616,0.875c-0.032,0.181-0.049,0.325-0.058,0.439
			c0.493-0.358,1.24-1.144,1.538-1.666c0.208-0.363,0.67-0.488,1.032-0.281c0.363,0.207,0.489,0.669,0.281,1.032
			C96.946,141.75,95.253,144.333,93.787,144.333z"/>
	</g>
	<g>
		<path d="M64.165,135.04c-1.88,0-2.536-1.37-2.97-2.276c-0.092-0.191-0.181-0.38-0.281-0.555c-0.179-0.251-0.404-0.51-0.61-0.75
			c-0.775-0.899-1.577-1.829-0.725-3.816c0.812-1.547,2.319-2.406,3.936-2.3c1.674,0.11,3.079,1.171,3.667,2.769
			c0.145,0.392-0.056,0.827-0.448,0.972c-0.395,0.143-0.827-0.057-0.972-0.448c-0.379-1.029-1.278-1.712-2.347-1.782
			c-1.047-0.069-1.96,0.47-2.471,1.44c-0.453,1.064-0.192,1.367,0.507,2.178c0.237,0.274,0.493,0.573,0.741,0.928
			c0.154,0.264,0.261,0.486,0.369,0.71c0.446,0.931,0.72,1.416,1.605,1.416c0.418,0,0.757,0.339,0.757,0.757
			S64.583,135.04,64.165,135.04z"/>
	</g>
	<g>
		<path d="M63.443,130.716c-0.339,0-0.648-0.229-0.733-0.573c-0.213-0.851,0.018-1.691,0.632-2.304c0.296-0.296,0.776-0.295,1.07,0
			c0.295,0.295,0.295,0.775,0,1.07c-0.297,0.297-0.291,0.636-0.233,0.867c0.102,0.406-0.145,0.816-0.55,0.917
			C63.566,130.709,63.504,130.716,63.443,130.716z"/>
	</g>
	<g>
		<path d="M108.988,132.302c-0.378,0-0.705-0.283-0.75-0.668c-0.049-0.415,0.248-0.791,0.663-0.84
			c1.264-0.149,2.78-1.28,3.526-2.631c0.391-0.708,0.743-1.789,0.203-2.922c-0.276-0.536-0.731-1.208-1.277-1.25
			c-1.176-0.124-2.845,2.217-3.852,3.595c-0.603,0.825-1.079,1.477-1.498,1.812c-0.327,0.261-0.803,0.208-1.063-0.118
			c-0.261-0.326-0.208-0.802,0.118-1.063c0.261-0.209,0.749-0.877,1.221-1.523c1.421-1.945,3.184-4.36,5.192-4.211
			c0.997,0.078,1.843,0.78,2.515,2.088c0.647,1.358,0.561,2.887-0.234,4.325c-0.976,1.768-2.942,3.198-4.674,3.402
			C109.047,132.3,109.018,132.302,108.988,132.302z"/>
	</g>
	<g>
		<path d="M109.709,128.986c-0.418,0-0.757-0.339-0.757-0.757c0-0.466,0.195-0.856,0.367-1.201c0.187-0.374,0.641-0.524,1.015-0.339
			c0.374,0.187,0.525,0.641,0.339,1.015c-0.092,0.186-0.208,0.416-0.208,0.525C110.466,128.647,110.127,128.986,109.709,128.986z"/>
	</g>
	<g>
		<path d="M105.24,127.545c-0.36,0-0.68-0.258-0.744-0.625c-0.345-1.958,0.132-4.053,0.593-6.08
			c0.154-0.675,0.305-1.335,0.416-1.966c0.073-0.412,0.466-0.688,0.876-0.614c0.412,0.073,0.687,0.465,0.614,0.876
			c-0.116,0.655-0.271,1.34-0.431,2.04c-0.428,1.88-0.871,3.824-0.579,5.481c0.073,0.412-0.202,0.804-0.614,0.876
			C105.328,127.542,105.284,127.545,105.24,127.545z"/>
	</g>
	<g>
		<path d="M105.385,119.186c-0.158,0-0.317-0.049-0.454-0.151c-1.734-1.301-2.781-2.085-2.607-4.691
			c-0.002-0.522,0.149-1.094,0.294-1.647c0.201-0.763,0.391-1.483,0.107-1.938c-0.222-0.354-0.114-0.821,0.241-1.042
			c0.353-0.222,0.821-0.115,1.042,0.241c0.63,1.008,0.334,2.133,0.073,3.125c-0.126,0.481-0.246,0.935-0.246,1.312
			c-0.121,1.837,0.372,2.207,2.003,3.43c0.334,0.251,0.402,0.725,0.151,1.06C105.842,119.081,105.615,119.186,105.385,119.186z"/>
	</g>
	<g>
		<path d="M103.943,110.682c-0.393,0-0.725-0.304-0.754-0.703c-0.118-1.638-3.952-3.118-7.609-2.929
			c-0.917,0.047-3.907,0.34-3.851,2.13c0.013,0.417-0.315,0.767-0.733,0.78c-0.421-0.01-0.767-0.315-0.78-0.733
			c-0.067-2.136,1.91-3.515,5.286-3.688c3.713-0.194,8.974,1.208,9.197,4.332c0.03,0.417-0.284,0.779-0.701,0.809
			C103.98,110.681,103.962,110.682,103.943,110.682z"/>
	</g>
	<g>
		<path d="M91.26,111.547c-0.154,0-0.31-0.047-0.444-0.145c-2.945-2.142-6.593-3.542-10.121-4.896l-0.515-0.198
			c-0.781-0.313-1.599-0.673-2.447-1.048c-3.04-1.342-6.471-2.864-9.479-2.65c-0.41,0.019-0.778-0.284-0.809-0.701
			c-0.03-0.417,0.284-0.779,0.701-0.809c3.375-0.238,6.996,1.362,10.197,2.776c0.831,0.367,1.632,0.721,2.389,1.023l0.505,0.194
			c3.619,1.39,7.362,2.827,10.468,5.086c0.338,0.246,0.413,0.719,0.167,1.057C91.725,111.438,91.494,111.547,91.26,111.547z"/>
	</g>
	<g>
		<path d="M75.839,128.554c-0.037,0-0.075-0.003-0.112-0.008c-7.149-1.065-14.465-9.13-14.769-16.282
			c-0.018-0.417,0.306-0.771,0.724-0.788c0.425-0.018,0.771,0.306,0.788,0.724c0.233,5.483,5.258,11.768,10.719,14.058
			c-0.385-0.522-0.63-1.096-0.552-1.724c0.035-0.274,0.216-0.508,0.473-0.61c0.257-0.101,0.551-0.054,0.762,0.122
			c0.763,0.636,1.714,0.957,2.75,1.19c-3.082-2.728-5.092-6.008-7.194-9.438l-0.218-0.356c-2.03-3.323-5.428-8.886-2.03-13.056
			c0.264-0.325,0.739-0.374,1.064-0.108c0.324,0.264,0.373,0.74,0.108,1.064c-2.721,3.34,0.209,8.137,2.148,11.311l0.218,0.356
			c2.565,4.186,4.99,8.142,9.42,11c0.313,0.202,0.433,0.602,0.282,0.942s-0.526,0.521-0.887,0.425
			c-0.588-0.157-1.197-0.268-1.841-0.386c-0.708-0.13-1.426-0.262-2.124-0.458c0.031,0.027,0.061,0.053,0.09,0.079
			c0.262,0.23,0.51,0.449,0.713,0.653c0.231,0.231,0.288,0.584,0.141,0.875C76.385,128.396,76.122,128.554,75.839,128.554z"/>
	</g>
	<g>
		<path d="M69.497,130.428c-0.035,0-0.071-0.002-0.107-0.008c-1.168-0.167-2.486-0.95-3.356-1.994
			c-0.268-0.321-0.225-0.798,0.097-1.065s0.798-0.225,1.065,0.097c0.288,0.345,0.654,0.66,1.042,0.909
			c-0.225-0.988-0.252-2.011-0.056-2.895c0.091-0.407,0.495-0.663,0.903-0.575c0.408,0.091,0.665,0.495,0.575,0.903
			c-0.23,1.037-0.024,2.457,0.514,3.533c0.126,0.252,0.102,0.553-0.063,0.781C69.967,130.313,69.738,130.428,69.497,130.428z"/>
	</g>
	<g>
		<path d="M61.283,118.177c-0.061,0-0.123-0.007-0.184-0.023c-2.147-0.537-4.645-1.375-6.361-3.174
			c0.01,0.158,0.021,0.317,0.031,0.475c0.033,0.481,0.064,0.951,0.064,1.389c0,0.281-0.156,0.54-0.406,0.67
			c-0.25,0.13-0.55,0.112-0.782-0.048c-3.714-2.571-5.371-6.164-5.371-11.648c0-0.418,0.339-0.757,0.757-0.757
			s0.757,0.339,0.757,0.757c0,4.308,1.046,7.213,3.448,9.399c-0.059-0.913-0.093-1.844,0.101-2.717
			c0.071-0.318,0.337-0.555,0.662-0.588c0.322-0.028,0.633,0.145,0.767,0.442c1.187,2.639,4.053,3.671,6.7,4.333
			c0.405,0.101,0.652,0.512,0.55,0.917C61.93,117.947,61.622,118.177,61.283,118.177z"/>
	</g>
	<g>
		<path d="M63.3,125.527c-0.418,0-0.757-0.339-0.757-0.757c0-1.674-0.378-3.467-1.095-5.186c-0.161-0.386,0.021-0.829,0.407-0.989
			c0.387-0.162,0.829,0.021,0.989,0.407c0.793,1.901,1.212,3.896,1.212,5.768C64.057,125.188,63.718,125.527,63.3,125.527z"/>
	</g>
	<g>
		<path d="M48.887,105.637c-0.185,0-0.371-0.067-0.516-0.204c-2.577-2.405-1.22-12.014-0.189-14.664
			c1.261-2.838,2.861-4.235,5.205-5.7c0.892-0.657,1.724-1.624,2.528-2.559c0.979-1.138,1.991-2.314,3.249-3.069
			c0.356-0.215,0.823-0.099,1.038,0.26c0.215,0.358,0.099,0.823-0.26,1.038c-1.049,0.629-1.938,1.664-2.88,2.758
			c-0.86,1-1.749,2.034-2.827,2.824c-2.191,1.372-3.561,2.566-4.656,5.03c-1.107,2.85-1.879,11.385-0.175,12.976
			c0.306,0.285,0.322,0.764,0.037,1.069C49.291,105.556,49.089,105.637,48.887,105.637z"/>
	</g>
	<g>
		<path d="M89.531,93.674c-0.135,0-0.271-0.036-0.395-0.112c-4.988-3.057-9.537-5.543-13.907-7.6
			c-0.669-0.321-1.499-0.766-2.434-1.268c-3.765-2.02-10.065-5.4-12.894-3.934c-0.371,0.192-0.827,0.047-1.02-0.324
			c-0.192-0.371-0.047-0.828,0.324-1.02c3.536-1.833,9.761,1.506,14.306,3.944c0.912,0.489,1.721,0.923,2.369,1.234
			c4.415,2.078,9.012,4.589,14.048,7.676c0.356,0.218,0.468,0.684,0.25,1.041C90.034,93.546,89.785,93.674,89.531,93.674z"/>
	</g>
	<g>
		<path d="M110.141,123.653c-0.38,0-0.708-0.286-0.751-0.673c-0.051-0.46-0.33-0.958-0.626-1.486
			c-0.384-0.686-0.82-1.463-0.82-2.345c0-0.749,0.341-1.47,0.67-2.168c0.281-0.595,0.572-1.21,0.63-1.799
			c0.114-2.177-0.796-4.969-1.599-7.432c-0.134-0.412-0.265-0.814-0.388-1.201c-1.788-6.737-7.503-7.905-13.555-9.143
			c-0.41-0.083-0.674-0.483-0.59-0.893c0.083-0.41,0.485-0.675,0.893-0.59c6.237,1.275,12.687,2.594,14.705,10.204
			c0.111,0.349,0.241,0.747,0.374,1.154c0.843,2.588,1.799,5.522,1.668,8.016c-0.088,0.884-0.451,1.652-0.771,2.33
			c-0.271,0.572-0.525,1.113-0.525,1.522c0,0.487,0.304,1.03,0.626,1.605c0.356,0.636,0.725,1.293,0.81,2.059
			c0.046,0.416-0.253,0.79-0.668,0.835C110.197,123.652,110.168,123.653,110.141,123.653z"/>
	</g>
	<g>
		<path d="M94.288,98.431c-0.199,0-0.398-0.079-0.547-0.234c-3.015-3.152-5.656-4.946-10.24-4.811
			c-0.435-0.019-0.767-0.316-0.779-0.733c-0.013-0.418,0.316-0.767,0.733-0.779c5.116-0.158,8.152,1.904,11.379,5.278
			c0.289,0.302,0.278,0.781-0.024,1.07C94.664,98.361,94.476,98.431,94.288,98.431z"/>
	</g>
	<g>
		<path d="M82.613,123.725c-0.09,0-0.182-0.016-0.271-0.051c-0.456-0.175-0.929-0.384-1.415-0.598
			c-1.475-0.651-3.003-1.33-4.461-1.227c-0.411,0.03-0.777-0.287-0.805-0.705c-0.028-0.417,0.288-0.777,0.705-0.805
			c1.834-0.127,3.608,0.661,5.173,1.353c0.462,0.204,0.912,0.403,1.346,0.57c0.39,0.15,0.585,0.588,0.435,0.978
			C83.203,123.541,82.917,123.725,82.613,123.725z"/>
	</g>
	<g>
		<path d="M95.007,123.941c-0.171,0-0.342-0.058-0.484-0.176c-0.321-0.267-0.364-0.745-0.097-1.065
			c0.867-1.04,2.641-1.382,4.09-1.564c0.419-0.05,0.793,0.242,0.845,0.657c0.052,0.415-0.242,0.793-0.657,0.845
			c-1.672,0.209-2.721,0.556-3.117,1.031C95.439,123.848,95.224,123.941,95.007,123.941z"/>
	</g>
	<g>
		<path d="M89.846,131.773c-0.723,0-1.278-0.438-1.478-1.188c-0.108-0.404,0.132-0.818,0.536-0.926
			c0.402-0.108,0.818,0.132,0.926,0.536c0.019,0.071,0.037,0.096,0.038,0.096c0.018-0.018,0.35-0.065,0.953-0.469
			c1.19-0.799,2.219-2.126,2.28-2.485c-0.002-0.775-2.393-2.273-3.414-2.913c-0.485-0.304-0.907-0.57-1.186-0.779
			c-0.334-0.251-0.402-0.725-0.151-1.06c0.252-0.334,0.726-0.401,1.06-0.151c0.253,0.19,0.639,0.43,1.081,0.707
			c2.255,1.414,4.122,2.707,4.122,4.222c0,1.385-2.872,4.177-4.518,4.393C90.009,131.768,89.926,131.773,89.846,131.773z"/>
	</g>
	<g>
		<path d="M91.981,122.788c-0.596,0-1.113-0.287-1.568-0.54c-0.264-0.147-0.538-0.299-0.742-0.339
			c-0.253-0.051-0.584-0.021-0.936,0.011c-0.422,0.039-0.903,0.082-1.37-0.011c-0.863-0.144-1.536-0.362-2.187-0.574
			c-0.687-0.223-1.335-0.434-2.248-0.574c-2.204-0.219-3.844-0.584-4.835-1.08c-0.999-0.577-1.903-1.394-2.86-2.259
			c-1.781-1.609-3.618-3.274-5.583-2.866c-0.407,0.084-0.81-0.177-0.895-0.586c-0.085-0.409,0.177-0.81,0.586-0.895
			c2.71-0.569,4.94,1.448,6.906,3.225c0.896,0.81,1.743,1.575,2.563,2.05c0.773,0.385,2.277,0.707,4.308,0.91
			c1.074,0.164,1.812,0.404,2.525,0.635c0.626,0.204,1.217,0.396,1.993,0.524c0.276,0.056,0.609,0.025,0.959-0.007
			c0.424-0.039,0.902-0.081,1.37,0.011c0.436,0.087,0.832,0.307,1.18,0.5c0.309,0.172,0.629,0.35,0.833,0.35
			c0.96,0,1.329-0.483,1.951-1.408c0.268-0.4,0.572-0.853,0.973-1.253c0.27-0.27,0.527-0.521,0.776-0.763
			c0.928-0.905,1.729-1.687,2.606-2.894c0.241-0.344,0.48-0.708,0.72-1.072c0.451-0.685,0.911-1.384,1.437-2.035
			c-1.182,0.24-2.424,1.144-3.406,1.857c-0.394,0.296-0.948,0.575-1.535,0.87c-1.02,0.513-2.417,1.215-2.48,1.902
			c-0.019,0.211-0.126,0.405-0.295,0.534c-0.169,0.128-0.386,0.178-0.593,0.143c-0.527-0.096-0.933-0.206-1.289-0.304
			c-0.693-0.19-1.077-0.294-1.886-0.131c-0.25,0.037-0.319,0.09-0.471,0.208c-0.415,0.321-0.879,0.591-1.988,0.369
			c-0.545-0.091-1.046-0.383-1.53-0.665c-0.366-0.213-0.745-0.435-1.041-0.483c-0.311-0.053-0.668,0.008-1.048,0.072
			c-0.464,0.078-0.99,0.164-1.546,0.072c-1.385-0.296-2.424-1.125-3.429-1.925c-0.663-0.528-1.348-1.075-2.118-1.459
			c-1.59-0.608-4.288-0.927-6.02-0.259c-0.39,0.15-0.828-0.045-0.978-0.435s0.045-0.828,0.435-0.978
			c2.109-0.811,5.206-0.468,7.173,0.289c0.979,0.485,1.728,1.082,2.451,1.659c0.908,0.724,1.766,1.407,2.769,1.623
			c0.275,0.045,0.634-0.016,1.014-0.079c0.464-0.078,0.99-0.164,1.546-0.072c0.569,0.095,1.07,0.387,1.554,0.669
			c0.366,0.213,0.745,0.435,1.041,0.483c0.546,0.109,0.614,0.059,0.791-0.078c0.213-0.165,0.537-0.415,1.14-0.501
			c1.12-0.225,1.779-0.046,2.541,0.163c0.159,0.043,0.33,0.09,0.519,0.136c0.557-1.044,1.921-1.73,3.061-2.303
			c0.525-0.264,1.021-0.513,1.316-0.735c1.66-1.207,3.922-2.852,6.203-1.974c0.247,0.095,0.426,0.311,0.473,0.571
			c0.047,0.26-0.044,0.525-0.242,0.701c-0.898,0.798-1.58,1.834-2.302,2.93c-0.248,0.375-0.495,0.751-0.752,1.118
			c-0.96,1.321-1.804,2.145-2.781,3.098c-0.245,0.239-0.498,0.485-0.762,0.75c-0.296,0.296-0.535,0.651-0.787,1.026
			C94.567,121.636,93.792,122.788,91.981,122.788z"/>
	</g>
	<g>
		<path d="M108.411,106.791c-0.381,0-0.709-0.288-0.751-0.675c-0.537-4.967-1.436-13.281-1.733-18.923
			c-0.171-2.658,0.01-5.284,0.185-7.823c0.121-1.754,0.246-3.567,0.246-5.333c0-0.941-0.066-2.023-0.136-3.168
			c-0.174-2.843-0.37-6.064,0.388-8.448c0.126-0.397,0.55-0.617,0.951-0.492c0.398,0.127,0.618,0.552,0.492,0.951
			c-0.673,2.114-0.485,5.186-0.319,7.896c0.071,1.169,0.139,2.273,0.139,3.26c0,1.817-0.127,3.657-0.25,5.437
			c-0.172,2.49-0.349,5.064-0.184,7.63c0.295,5.609,1.191,13.897,1.727,18.849c0.045,0.416-0.255,0.789-0.671,0.834
			C108.466,106.789,108.438,106.791,108.411,106.791z"/>
	</g>
	<g>
		<path d="M111.439,161.776c-0.322,0-0.62-0.206-0.722-0.529c-0.507-1.607-0.31-4.824-0.101-8.229
			c0.161-2.618,0.328-5.325,0.079-6.63c-0.284-1.755-0.438-3.667-0.586-5.515c-0.241-2.989-0.49-6.081-1.269-8.678
			c-0.12-0.4,0.107-0.822,0.507-0.942c0.399-0.12,0.822,0.106,0.942,0.507c0.825,2.751,1.081,5.923,1.328,8.991
			c0.153,1.902,0.298,3.699,0.568,5.374c0.28,1.471,0.116,4.149-0.059,6.985c-0.183,2.972-0.39,6.342,0.033,7.681
			c0.125,0.399-0.095,0.824-0.494,0.95C111.591,161.765,111.514,161.776,111.439,161.776z"/>
	</g>
	<g>
		<path d="M119.366,153.056c-0.418,0-0.757-0.339-0.757-0.757c0-3.267,0.156-6.58,0.306-9.784
			c0.261-5.564,0.531-11.319-0.014-16.952c-0.214-1.855-0.466-3.724-0.718-5.593c-0.253-1.878-0.505-3.757-0.722-5.635
			c-0.18-1.736-0.12-3.482-0.062-5.17c0.086-2.511,0.167-4.883-0.489-7.097c-0.119-0.4,0.11-0.822,0.511-0.94
			c0.399-0.116,0.821,0.11,0.94,0.511c0.726,2.45,0.637,5.057,0.55,7.578c-0.056,1.638-0.114,3.331,0.053,4.954
			c0.215,1.86,0.467,3.729,0.718,5.598c0.253,1.878,0.505,3.757,0.722,5.635c0.557,5.755,0.285,11.564,0.021,17.183
			c-0.149,3.186-0.304,6.481-0.304,9.712C120.123,152.717,119.784,153.056,119.366,153.056z"/>
	</g>
	<g>
		<path d="M117.781,102.755c-0.025,0-0.05-0.001-0.075-0.004c-0.416-0.041-0.72-0.411-0.679-0.827
			c0.785-8.027,0.229-16.105-0.309-23.919c-0.346-5.021-0.704-10.214-0.704-15.355c0-0.418,0.339-0.757,0.757-0.757
			s0.757,0.339,0.757,0.757c0,5.088,0.355,10.255,0.7,15.251c0.542,7.875,1.103,16.018,0.305,24.17
			C118.495,102.463,118.166,102.755,117.781,102.755z"/>
	</g>
	<g>
		<path d="M20.76,71.624c-0.316,0-0.61-0.199-0.717-0.515c-0.134-0.396,0.079-0.825,0.475-0.958
			c7.338-2.474,15.271-3.37,22.942-4.236c5.817-0.657,11.833-1.336,17.479-2.701c7.444-1.729,18.154-3.532,26.945-2.32
			c0.414,0.057,0.703,0.439,0.646,0.853s-0.441,0.701-0.853,0.646c-8.558-1.18-19.075,0.596-26.389,2.294
			c-5.731,1.385-11.794,2.07-17.658,2.732c-7.592,0.857-15.443,1.744-22.628,4.166C20.922,71.611,20.84,71.624,20.76,71.624z"/>
	</g>
	<g>
		<path d="M141.65,63.142c-1.624,0-3.222-0.116-4.778-0.229c-1.535-0.111-3.122-0.227-4.7-0.227
			c-14.708-0.288-29.798-0.288-44.392-0.288c-0.418,0-0.757-0.339-0.757-0.757s0.339-0.757,0.757-0.757
			c14.601,0,29.698,0,44.406,0.289c0.001,0,0.002,0,0.003,0c1.616,0,3.23,0.117,4.791,0.23c1.902,0.138,3.871,0.278,5.826,0.203
			c1.818-0.08,3.617-0.333,5.521-0.601c1.471-0.208,2.993-0.422,4.536-0.55c4.677-0.39,9.836-0.579,15.772-0.579
			c0.755,0,1.256-0.009,1.63-0.016c1.162-0.02,1.202-0.015,3.254,0.293l0.128,0.019c0.413,0.063,0.698,0.448,0.636,0.861
			s-0.449,0.697-0.861,0.636l-0.128-0.02c-1.966-0.295-1.966-0.296-3.002-0.276c-0.38,0.007-0.89,0.016-1.657,0.016
			c-5.894,0-11.012,0.188-15.646,0.573c-1.5,0.125-3,0.336-4.451,0.541c-1.856,0.261-3.775,0.532-5.668,0.614
			C142.462,63.135,142.055,63.142,141.65,63.142z"/>
	</g>
	<g>
		<path d="M20.329,71.334c-0.289,0-0.565-0.167-0.691-0.448c-0.893-1.997-1.925-3.999-2.924-5.936
			c-1.741-3.376-3.541-6.869-4.744-10.57c-0.404-1.211-0.787-2.417-1.166-3.611c-0.979-3.083-1.904-5.994-3.133-8.864
			c-0.571-1.451-1.413-2.819-2.304-4.267c-1.542-2.506-3.137-5.097-3.234-8.113c-0.013-0.417,0.314-0.767,0.732-0.781
			c0.406-0.004,0.767,0.314,0.781,0.732c0.084,2.615,1.505,4.924,3.01,7.369c0.887,1.441,1.804,2.931,2.415,4.486
			c1.25,2.916,2.186,5.862,3.176,8.98c0.377,1.188,0.758,2.386,1.161,3.596c1.167,3.591,2.938,7.027,4.652,10.35
			c1.008,1.955,2.05,3.976,2.96,6.011c0.17,0.381,0,0.829-0.382,1C20.537,71.313,20.432,71.334,20.329,71.334z"/>
	</g>
	<g>
		<path d="M3.033,29.826c-0.281,0-0.551-0.157-0.682-0.427c-0.182-0.376-0.024-0.829,0.352-1.011c2.5-1.209,5.335-2.118,8.078-2.996
			c2.233-0.715,4.542-1.455,6.657-2.353c4.263-1.875,8.009-3.345,11.442-4.489c7.042-2.642,14.758-3.933,22.044-4.932
			c5.768-0.704,11.012-1.425,16.898-3.147c6.032-1.653,12.123-1.863,18.014-2.066c4.512-0.155,9.178-0.316,13.776-1.124
			c4.88-0.888,9.931-1.02,14.816-1.148c3.111-0.082,6.329-0.166,9.461-0.446c2.149-0.143,4.323-0.336,6.426-0.522
			c4.311-0.382,8.768-0.778,13.243-0.778h17.584c0.834,0,1.706-0.045,2.628-0.093c1.892-0.098,3.848-0.2,5.574,0.105
			c1.138,0.207,2.053,0.67,2.939,1.119c0.469,0.237,0.912,0.462,1.39,0.653c0.388,0.155,0.577,0.595,0.422,0.983
			s-0.597,0.575-0.983,0.422c-0.541-0.216-1.035-0.466-1.512-0.708c-0.825-0.418-1.604-0.813-2.522-0.979
			c-1.555-0.275-3.423-0.178-5.229-0.083c-0.901,0.047-1.833,0.096-2.707,0.096h-17.584c-4.409,0-8.832,0.392-13.109,0.771
			c-2.111,0.187-4.293,0.381-6.442,0.524c-3.163,0.283-6.404,0.368-9.539,0.45c-4.828,0.126-9.82,0.257-14.59,1.125
			c-4.707,0.827-9.426,0.99-13.99,1.147c-5.804,0.2-11.805,0.407-17.653,2.009c-5.983,1.751-11.292,2.482-17.116,3.192
			c-7.188,0.987-14.804,2.259-21.734,4.858c-3.415,1.139-7.118,2.592-11.347,4.452c-2.188,0.928-4.53,1.678-6.796,2.404
			c-2.692,0.863-5.477,1.754-7.88,2.917C3.256,29.801,3.144,29.826,3.033,29.826z"/>
	</g>
	<g>
		<path d="M173.538,61.246c-0.04,0-0.08-0.003-0.12-0.01c-0.413-0.065-0.694-0.453-0.628-0.866c0.75-4.71,0.206-9.277-0.369-14.112
			c-0.181-1.521-0.362-3.047-0.502-4.582c-0.166-2.485,0.126-4.872,0.409-7.179c0.223-1.814,0.452-3.69,0.452-5.573l0.004-1.496
			c0.014-3.922,0.028-7.979-0.849-11.736c-0.164-0.779-0.359-1.53-0.553-2.276c-0.5-1.93-1.017-3.926-0.907-6.006
			c0.022-0.417,0.375-0.735,0.795-0.716c0.417,0.022,0.738,0.378,0.716,0.795c-0.098,1.848,0.368,3.645,0.861,5.547
			c0.199,0.769,0.399,1.543,0.564,2.329c0.914,3.914,0.899,8.06,0.885,12.069l-0.003,1.491c0,1.975-0.236,3.897-0.463,5.757
			c-0.287,2.341-0.558,4.552-0.403,6.876c0.137,1.502,0.317,3.014,0.497,4.521c0.562,4.725,1.144,9.61,0.36,14.529
			C174.225,60.98,173.903,61.246,173.538,61.246z"/>
	</g>
	<g>
		<path d="M25.584,50.212c-1.457,0-3.033-0.327-4.672-0.983c-2.504-1.095-4.362-3.152-5.394-5.958
			c-1.778-4.837-0.8-10.641,0.959-14.245c0.184-0.375,0.638-0.53,1.012-0.349c0.029,0.014,0.056,0.029,0.082,0.046
			c2.014-0.98,5.146-0.558,6.4-0.245c0.401,0.1,0.648,0.504,0.553,0.907c-0.272,1.157-0.104,2.38,0.059,3.563
			c0.158,1.145,0.32,2.329,0.091,3.475c-0.082,0.41-0.479,0.674-0.891,0.594c-1.299-0.261-2.343-0.012-2.657,0.632
			c-0.327,0.671,0.175,1.717,1.28,2.663c3.048,2.569,6.536,0.09,7.53-0.73c0.169-0.14,0.389-0.2,0.607-0.162
			c0.217,0.037,0.406,0.165,0.521,0.353c2.105,3.46,3.18,5.96-0.909,9.067C28.859,49.755,27.305,50.212,25.584,50.212z
			 M17.373,30.744c-1.5,3.79-1.699,8.566-0.435,12.005c0.898,2.444,2.432,4.154,4.558,5.084c2.161,0.864,5.284,1.538,7.764-0.213
			c2.791-2.122,2.615-3.469,0.943-6.336c-3.068,2.183-6.302,2.268-8.777,0.182c-1.699-1.456-2.318-3.129-1.661-4.479
			c0.547-1.124,1.853-1.695,3.504-1.567c0.027-0.707-0.077-1.47-0.187-2.265c-0.149-1.083-0.302-2.197-0.166-3.353
			c-1.909-0.332-4.488-0.26-5.318,0.754C17.534,30.636,17.458,30.698,17.373,30.744z"/>
	</g>
	<g>
		<path d="M35.894,47.842c-0.025,0-0.051-0.001-0.077-0.004c-0.204-0.021-0.39-0.124-0.517-0.284
			c-4.743-6.009-5.352-13.805-5.352-19.926c0-0.412,0.33-0.747,0.739-0.756c0.107-0.137,0.262-0.237,0.446-0.274
			c0.323-0.064,0.756-0.207,1.215-0.358c1.538-0.506,3.644-1.197,4.607,0.248c0.266,0.398,0.306,1.064,0.334,2.488
			c0.009,0.444,0.021,1.051,0.059,1.208c0.009,0.036,0.016,0.077,0.019,0.115c0.27,2.964,0.92,5.443,2.095,7.947
			c1.314-0.427,2.625-1.011,3.899-1.577c1.396-0.621,2.84-1.263,4.276-1.693c0.354-0.106,0.729,0.057,0.894,0.386
			c0.723,1.445,1.089,3.208,1.089,5.239l0.001,0.346c0.011,1.978-0.356,2.241-2.423,2.832c-1.278,0.396-2.473,0.646-3.628,0.888
			c-2.586,0.541-4.82,1.007-7.191,3C36.243,47.78,36.071,47.842,35.894,47.842z M31.463,28.075
			c0.029,5.594,0.636,12.518,4.567,17.937c2.436-1.825,4.771-2.313,7.232-2.828c1.122-0.234,2.281-0.477,3.506-0.857
			c0.513-0.147,1.192-0.341,1.303-0.457c0.044-0.091,0.042-0.53,0.04-0.917L48.109,40.6c0-1.495-0.229-2.854-0.668-3.972
			c-1.133,0.387-2.27,0.893-3.463,1.423c-1.518,0.675-3.087,1.373-4.705,1.835c-0.353,0.1-0.722-0.064-0.885-0.389
			c-1.433-2.866-2.212-5.647-2.522-9.013c-0.063-0.305-0.075-0.771-0.089-1.478c-0.01-0.527-0.03-1.509-0.115-1.742
			c-0.291-0.425-1.887,0.1-2.841,0.414C32.331,27.839,31.867,27.991,31.463,28.075z"/>
	</g>
	<g>
		<path d="M45.406,36.6c-0.164,0-0.329-0.053-0.467-0.162c-2.262-1.777-4.769-6.156-4.612-9.138
			c0.022-0.417,0.371-0.736,0.795-0.716c0.417,0.022,0.738,0.378,0.716,0.795c-0.126,2.387,2.152,6.389,4.036,7.869
			c0.328,0.258,0.385,0.734,0.127,1.062C45.852,36.501,45.63,36.6,45.406,36.6z"/>
	</g>
	<g>
		<path d="M53.16,42.552c-1.125,0-2.596-0.433-3.777-2.263c-0.227-0.351-0.125-0.819,0.226-1.046
			c0.351-0.226,0.82-0.126,1.046,0.226c0.73,1.132,1.619,1.644,2.722,1.562c2.087-0.153,4.556-2.49,5.466-4.492
			c1.843-3.97,2.179-9.245,0.838-13.133c-0.059-0.176-0.11-0.355-0.162-0.536c-0.11-0.387-0.242-0.849-0.41-1.039
			c-1.033,0.493-2.1,1.016-2.389,1.183c-0.336,0.439-0.194,1.204,0.081,2.387c0.13,0.561,0.265,1.141,0.314,1.732
			c0.319,3.834-0.233,6.234-1.688,7.338c-1.045,0.793-2.468,0.862-4.23,0.208c-2.504-0.974-3.578-3.446-4.44-5.433
			c-0.151-0.347-0.298-0.687-0.449-1.01c-0.166-0.447-0.251-0.762-0.32-1.017c-0.043-0.162-0.098-0.363-0.13-0.417
			c0.021,0.036-0.134-0.004-0.739-0.004c-0.042,0-0.083-0.003-0.124-0.01c-0.62-0.109-2.41,0.79-2.997,1.083
			c-0.374,0.186-0.828,0.035-1.015-0.338s-0.036-0.828,0.338-1.015c1.33-0.666,2.826-1.367,3.852-1.233
			c1.513,0.006,1.942,0.302,2.275,1.54c0.06,0.222,0.133,0.496,0.255,0.832c0.131,0.274,0.284,0.626,0.44,0.986
			c0.829,1.907,1.686,3.88,3.591,4.621c1.234,0.458,2.172,0.46,2.777,0c0.684-0.52,1.43-1.983,1.095-6.007
			c-0.041-0.481-0.163-1.007-0.281-1.515c-0.296-1.272-0.631-2.714,0.321-3.802c0.134-0.137,0.271-0.274,3.128-1.627
			c0.14-0.065,0.295-0.087,0.448-0.063c1.178,0.196,1.509,1.356,1.751,2.203c0.045,0.159,0.09,0.317,0.14,0.465
			c1.457,4.226,1.098,9.956-0.896,14.251c-1.102,2.423-3.99,5.168-6.73,5.369C53.382,42.548,53.272,42.552,53.16,42.552z"/>
	</g>
	<g>
		<path d="M67.319,41.065c-0.634,0-1.235-0.106-1.769-0.357c-1.984-0.992-4.218-8.084-4.447-9.004
			c-0.102-0.406,0.145-0.816,0.55-0.917c0.407-0.103,0.817,0.145,0.917,0.55c0.552,2.21,2.673,7.527,3.64,8.01
			c1.871,0.879,5.91-1.122,8.167-2.684c1.408-1.005,2.989-2.779,3.113-4.282c0.052-0.621-0.152-1.152-0.624-1.623
			c-1.075-1.076-4.188-1.076-5.518-1.076c-0.401,0-0.732-0.313-0.755-0.712c-0.062-1.053,0.616-2.22,1.334-3.456
			c0.759-1.307,1.62-2.788,1.291-3.759c-0.165-0.484-0.634-0.88-1.437-1.21c-2.267-0.933-7.888-0.214-9.844,0.958
			c-0.357,0.215-0.823,0.1-1.038-0.26c-0.215-0.358-0.099-0.823,0.26-1.038c2.315-1.389,8.496-2.172,11.199-1.06
			c1.214,0.5,1.985,1.214,2.294,2.124c0.55,1.622-0.494,3.419-1.416,5.005c-0.386,0.665-0.781,1.344-0.987,1.899
			c1.832,0.03,4.4,0.225,5.688,1.514c0.782,0.783,1.149,1.757,1.062,2.818c-0.177,2.131-2.131,4.238-3.751,5.395
			C74.699,38.28,70.567,41.065,67.319,41.065z"/>
	</g>
	<g>
		<path d="M65.472,28.543c-0.086,0-0.173-0.006-0.26-0.02c-1.528-0.231-2.4-2.507-2.682-4.387c-0.043-0.288,0.082-0.562,0.301-0.723
			c0.041-0.17,0.142-0.328,0.295-0.438c1.388-0.991,3.198-1.066,4.305-0.18c0.941,0.753,1.158,2.022,0.58,3.396
			C67.256,27.763,66.407,28.543,65.472,28.543z M64.068,24.165c0.302,1.697,0.985,2.804,1.37,2.862
			c0.167,0.024,0.612-0.248,1.195-1.457c0.203-0.485,0.358-1.189-0.146-1.592C65.998,23.587,64.969,23.556,64.068,24.165z"/>
	</g>
	<g>
		<path d="M69.08,37.054c-0.518,0-1.002-0.166-1.385-0.485c-0.53-0.526-0.745-1.25-0.952-1.95c-0.146-0.49-0.294-0.994-0.513-1.337
			c-0.37,0.033-0.719-0.21-0.806-0.583c-0.094-0.407,0.16-0.813,0.567-0.908c2.058-0.474,4.733-0.77,5.807,0.52
			c0.552,0.664,0.586,1.566,0.102,2.681c-0.395,0.987-1.216,1.736-2.189,1.982C69.498,37.027,69.286,37.054,69.08,37.054z
			 M67.784,32.997c0.172,0.391,0.294,0.805,0.409,1.192c0.147,0.495,0.313,1.056,0.521,1.264c0.167,0.134,0.467,0.095,0.625,0.054
			c0.39-0.099,0.9-0.438,1.164-1.098c0.143-0.329,0.337-0.883,0.131-1.13C70.369,32.958,69.39,32.78,67.784,32.997z"/>
	</g>
	<g>
		<path d="M92.969,33.285c-0.145,0-0.29-0.041-0.419-0.127c-0.649-0.433-1.119-1.098-1.454-1.92
			c-0.323,0.675-0.735,1.178-1.26,1.457c-0.561,0.297-1.497,0.466-2.771-0.407c-1.098-0.783-1.531-2.022-1.202-3.408
			c0.408-1.718,1.846-3.189,3.344-3.421c0.293-0.045,0.701-0.059,1.146,0.074c0.024-1.585,0.152-3.2,0.266-4.64
			c0.039-0.491,0.075-0.95,0.103-1.359c0.003-0.612,0.018-1.003,0.059-1.254c0.065-0.388,0.403-0.669,0.809-0.629
			c0.392,0.032,0.694,0.36,0.694,0.754c0,0.328-0.019,0.728-0.049,1.183c-0.001,0.336,0,0.719,0.003,1.11
			c0.011,2.191-0.009,4.378-0.188,6.285c0.151,0.281,0.107,0.62-0.093,0.852c-0.003,0.027-0.007,0.054-0.01,0.081
			c0.146,1.834,0.547,3.388,1.442,3.984c0.348,0.231,0.441,0.702,0.209,1.049C93.453,33.167,93.213,33.285,92.969,33.285z
			 M89.628,26.937c-0.081,0-0.146,0.01-0.189,0.017c-0.879,0.136-1.843,1.178-2.104,2.276c-0.129,0.543-0.13,1.299,0.597,1.818
			c0.509,0.349,0.915,0.456,1.194,0.309c0.669-0.354,1.061-1.737,1.289-3.432c-0.017-0.217-0.03-0.437-0.04-0.658
			C90.087,26.991,89.815,26.937,89.628,26.937z"/>
	</g>
	<g>
		<path d="M100.827,33.045c-1.719,0-3.608-0.234-4.476-1.721c-0.518-0.948-0.525-2.344-0.029-3.751
			c0.502-1.427,1.403-2.53,2.41-2.949c1.506-0.699,2.312-0.365,2.717,0.04c0.572,0.571,0.612,1.566,0.106,2.662
			c-0.651,1.413-2.153,2.861-4.009,2.939c0.031,0.116,0.072,0.222,0.123,0.315c0.614,1.052,2.759,0.978,4.324,0.925
			c0.333-0.011,0.645-0.022,0.921-0.022c0.418,0,0.757,0.339,0.757,0.757s-0.339,0.757-0.757,0.757c-0.26,0-0.554,0.01-0.869,0.021
			C101.661,33.031,101.249,33.045,100.827,33.045z M100.302,25.726c-0.123,0-0.416,0.029-0.961,0.282
			c-0.626,0.262-1.24,1.068-1.592,2.066c-0.079,0.226-0.142,0.452-0.188,0.673c1.054-0.084,1.935-0.907,2.397-1.646
			c0.447-0.713,0.478-1.262,0.415-1.375C100.374,25.73,100.352,25.726,100.302,25.726z"/>
	</g>
	<g>
		<path d="M25.497,65.417c-0.352,0-0.709-0.056-1.071-0.169c-0.798-0.228-1.304-0.604-1.53-1.146
			c-0.362-0.867,0.14-1.782,0.672-2.751c0.134-0.244,0.274-0.5,0.407-0.766c1.407-2.815,2.694-3.563,5.554-3.083
			c0.003-0.017,0.006-0.034,0.009-0.05c-0.263-1.212-0.176-2.554-0.09-3.876c0.025-0.392,0.051-0.79,0.069-1.189
			c0.015-0.356,0.277-0.653,0.629-0.713c0.351-0.06,0.697,0.135,0.83,0.465c0.441,1.103,0.473,3.13,0.112,5.275
			c0.287,0.996,0.921,1.717,2.205,2.23l0.356,0.122c0.522,0.182,0.929,0.315,1.279,0.348c-0.363-0.373-0.631-0.804-0.77-1.289
			c-0.513-1.711,0.393-3.546,1.453-4.523c0.809-0.745,1.69-1.006,2.415-0.725c0.495,0.194,1.107,0.715,1.218,2.096
			c0.002,0.673-0.801,3.028-1.56,4.336c0.866,0.282,1.901,0.409,2.911,0.308c0.75-0.075,2.508-0.396,2.617-1.762
			c0.033-0.417,0.403-0.722,0.815-0.694c0.417,0.034,0.727,0.398,0.694,0.815c-0.139,1.736-1.625,2.913-3.976,3.146
			c-1.376,0.139-2.914-0.079-4.167-0.62c-1.198,0.767-2.419,0.342-3.427-0.01l-0.378-0.13c-0.975-0.389-1.68-0.887-2.186-1.462
			c-0.507,1.726-1.268,3.349-2.276,4.438C27.466,64.951,26.508,65.417,25.497,65.417z M28.111,58.871
			c-1.298,0-1.907,0.636-2.783,2.389c-0.142,0.284-0.291,0.557-0.434,0.816c-0.256,0.466-0.684,1.246-0.603,1.441
			c0.015,0.035,0.15,0.161,0.567,0.28c0.846,0.265,1.606,0.006,2.339-0.787c0.867-0.937,1.537-2.441,1.983-4.036
			C28.776,58.908,28.424,58.871,28.111,58.871z M37.424,54.978c-0.127,0-0.418,0.095-0.788,0.436
			c-0.748,0.689-1.34,1.936-1.026,2.985c0.1,0.347,0.359,0.668,0.731,0.946c0.493-0.826,1.374-3.115,1.391-3.615
			c-0.045-0.531-0.206-0.724-0.258-0.745C37.461,54.981,37.445,54.978,37.424,54.978z"/>
	</g>
	<g>
		<path d="M52.181,60.093c-0.418,0-0.757-0.339-0.757-0.757c0-1.879-0.238-3.702-0.491-5.632c-0.255-1.945-0.518-3.957-0.518-6.042
			c0-0.418,0.339-0.757,0.757-0.757s0.757,0.339,0.757,0.757c0,1.987,0.256,3.949,0.505,5.846c0.248,1.894,0.504,3.851,0.504,5.829
			C52.938,59.754,52.599,60.093,52.181,60.093z"/>
	</g>
	<g>
		<path d="M56.505,58.796c-0.051,0-0.103-0.005-0.155-0.016c-0.409-0.085-0.672-0.486-0.586-0.895
			c0.392-1.88-0.002-3.824-0.42-5.882c-0.297-1.466-0.605-2.982-0.605-4.485c0-0.382,0.285-0.705,0.665-0.751
			c0.379-0.052,0.733,0.197,0.826,0.567c0.606,2.428,3.392,6.664,5.988,8.081c0.097-0.622,0.069-1.366,0.041-2.14
			c-0.038-1.003-0.076-2.04,0.137-3.033c0.089-0.737,0.314-1.466,0.533-2.171c0.117-0.38,0.237-0.765,0.338-1.169
			c0.101-0.406,0.51-0.654,0.917-0.55c0.405,0.101,0.652,0.512,0.55,0.917c-0.107,0.431-0.234,0.843-0.36,1.249
			c-0.208,0.672-0.404,1.306-0.488,1.976c-0.184,0.874-0.149,1.814-0.115,2.724c0.046,1.233,0.094,2.508-0.379,3.548
			c-0.16,0.353-0.561,0.529-0.928,0.405c-1.985-0.662-4.037-2.771-5.544-5.013c0.396,1.975,0.749,4.007,0.326,6.035
			C57.171,58.55,56.856,58.796,56.505,58.796z"/>
	</g>
	<g>
		<path d="M68.467,55.917c-0.418,0-0.757-0.339-0.757-0.757V52.13c0-1.018-0.037-1.999-0.073-2.961
			c-0.036-0.946-0.071-1.875-0.071-2.804c0-0.418,0.339-0.757,0.757-0.757s0.757,0.339,0.757,0.757c0,0.91,0.034,1.82,0.069,2.747
			c0.037,0.981,0.075,1.981,0.075,3.019v3.031C69.224,55.579,68.885,55.917,68.467,55.917z"/>
	</g>
	<g>
		<path d="M73.801,46.545c-0.038,0-0.077-0.003-0.116-0.009c-1.163-0.18-2.349-0.12-3.605-0.058
			c-0.668,0.033-1.348,0.067-2.044,0.067c-0.418,0-0.757-0.339-0.757-0.757s0.339-0.757,0.757-0.757c0.671,0,1.326-0.033,1.97-0.064
			c1.277-0.063,2.597-0.128,3.911,0.073c0.413,0.063,0.696,0.45,0.633,0.863C74.49,46.277,74.168,46.545,73.801,46.545z"/>
	</g>
	<g>
		<path d="M72.359,51.589h-3.459c-0.418,0-0.757-0.339-0.757-0.757s0.339-0.757,0.757-0.757h3.459c0.418,0,0.757,0.339,0.757,0.757
			S72.777,51.589,72.359,51.589z"/>
	</g>
	<g>
		<path d="M81.582,55.769c-0.361,0-0.681-0.259-0.745-0.627c-0.18-1.036-0.265-2.068-0.346-3.066c-0.147-1.79-0.287-3.5-0.951-5.11
			c-1.165,2.127-2.425,4.58-3.142,6.967c-0.12,0.401-0.543,0.629-0.942,0.507c-0.4-0.12-0.627-0.542-0.507-0.942
			c0.907-3.024,2.597-6.065,3.955-8.51c0.13-0.234,0.375-0.382,0.644-0.389c0.287-0.028,0.52,0.13,0.662,0.358
			c1.403,2.267,1.6,4.67,1.791,6.995c0.079,0.964,0.161,1.962,0.329,2.93c0.071,0.412-0.204,0.804-0.616,0.875
			C81.669,55.765,81.625,55.769,81.582,55.769z"/>
	</g>
	<g>
		<path d="M76.394,52.598c-0.333,0-0.638-0.221-0.729-0.558c-0.11-0.403,0.128-0.819,0.531-0.929
			c1.379-0.376,2.928-0.35,4.296-0.326c0.324,0.005,0.641,0.011,0.947,0.011c0.418,0,0.757,0.339,0.757,0.757
			s-0.339,0.757-0.757,0.757c-0.314,0-0.641-0.006-0.973-0.011c-1.327-0.024-2.701-0.047-3.873,0.272
			C76.526,52.589,76.459,52.598,76.394,52.598z"/>
	</g>
	<g>
		<path d="M84.465,55.481c-0.418,0-0.757-0.339-0.757-0.757v-9.081c0-0.357,0.25-0.666,0.6-0.74
			c0.347-0.077,0.704,0.105,0.849,0.433c0.855,1.925,2.156,3.552,3.48,5.1c-0.033-0.937-0.175-2.063-0.307-3.108
			c-0.153-1.21-0.297-2.353-0.297-3.27c0-0.418,0.339-0.757,0.757-0.757s0.757,0.339,0.757,0.757c0,0.822,0.138,1.918,0.285,3.08
			c0.256,2.032,0.521,4.133,0.108,5.375c-0.086,0.259-0.305,0.451-0.572,0.503c-0.269,0.051-0.543-0.043-0.72-0.25l-0.551-0.639
			c-0.986-1.141-1.994-2.307-2.874-3.603v6.2C85.222,55.142,84.883,55.481,84.465,55.481z"/>
	</g>
	<g>
		<path d="M93.689,44.095c-0.418,0-0.757-0.339-0.757-0.757s0.339-0.757,0.757-0.757c2.339,0,4.76-0.151,6.818-0.426
			c0.42-0.051,0.795,0.236,0.85,0.65s-0.236,0.795-0.65,0.85C98.585,43.938,96.093,44.095,93.689,44.095z"/>
	</g>
	<g>
		<path d="M97.437,53.031c-0.418,0-0.757-0.339-0.757-0.757c0-1.059-0.016-2.101-0.032-3.138c-0.031-2.032-0.063-4.134,0.033-6.265
			c0.02-0.417,0.373-0.734,0.79-0.722c0.417,0.019,0.741,0.373,0.722,0.79c-0.095,2.085-0.064,4.071-0.032,6.173
			c0.017,1.045,0.033,2.095,0.033,3.161C98.194,52.692,97.855,53.031,97.437,53.031z"/>
	</g>
	<g>
		<path d="M105.799,52.28c-0.501,0-1.028-0.101-1.57-0.308c-2.023-0.837-2.962-2.778-2.413-4.953
			c0.497-1.963,2.202-3.913,4.528-4.148c-0.019-0.128-0.005-0.262,0.046-0.39c0.155-0.389,0.596-0.576,0.983-0.422
			c2.511,1.004,3.091,4.694,2.042,7.378C108.696,51.277,107.377,52.28,105.799,52.28z M106.838,44.362
			c-1.753,0-3.165,1.487-3.554,3.029c-0.176,0.695-0.381,2.395,1.505,3.175c1.934,0.739,2.847-0.735,3.217-1.68
			c0.583-1.492,0.502-3.526-0.292-4.672c-0.15,0.122-0.346,0.188-0.554,0.165C107.052,44.368,106.944,44.362,106.838,44.362z"/>
	</g>
	<g>
		<path d="M113.58,47.554h-2.45c-0.418,0-0.757-0.339-0.757-0.757s0.339-0.757,0.757-0.757h2.45c0.418,0,0.757,0.339,0.757,0.757
			S113.998,47.554,113.58,47.554z"/>
	</g>
	<g>
		<path d="M116.491,53.481c-1.218,0-2.439-0.72-3.253-1.94c-0.232-0.348-0.138-0.818,0.209-1.049
			c0.348-0.23,0.818-0.138,1.049,0.209c0.575,0.862,1.396,1.345,2.171,1.257c0.623-0.072,1.117-0.515,1.392-1.247
			c0.778-2.466,0.402-6.024,0.127-8.623l-0.027-0.257c-0.044-0.416,0.258-0.788,0.673-0.832c0.418-0.047,0.788,0.258,0.832,0.673
			l0.027,0.256c0.289,2.731,0.684,6.471-0.202,9.275c-0.49,1.31-1.451,2.119-2.649,2.257
			C116.725,53.475,116.608,53.481,116.491,53.481z"/>
	</g>
	<g>
		<path d="M114.589,43.519c-0.269,0-0.53-0.144-0.667-0.398c-0.198-0.368-0.061-0.827,0.307-1.025
			c1.92-1.034,5.959-1.829,8.478-1.675c0.417,0.026,0.734,0.385,0.708,0.803c-0.026,0.417-0.373,0.731-0.803,0.708
			c-2.256-0.144-5.975,0.587-7.665,1.497C114.833,43.489,114.71,43.519,114.589,43.519z"/>
	</g>
	<g>
		<path d="M126.497,51.16c-0.044,0-0.089-0.001-0.134-0.004c-0.548-0.039-1.027-0.293-1.395-0.736
			c-1.356-1.63-0.986-5.655-0.898-6.445c0.046-0.415,0.415-0.72,0.836-0.668c0.415,0.046,0.714,0.42,0.668,0.836
			c-0.176,1.582-0.181,4.422,0.557,5.309c0.133,0.16,0.242,0.188,0.331,0.194c0.146,0.012,0.352-0.017,0.596-0.297
			c1.021-1.173,1.14-4.734,0.914-5.862c-0.082-0.41,0.184-0.809,0.594-0.891c0.411-0.08,0.809,0.185,0.891,0.594
			c0.224,1.119,0.271,5.397-1.257,7.152C127.732,50.879,127.146,51.16,126.497,51.16z"/>
	</g>
	<g>
		<path d="M134.479,52.166c-0.229,0-0.447-0.104-0.591-0.284c-1.047-1.309-1.376-3.015-1.695-4.666
			c-0.26-1.347-0.505-2.619-1.105-3.639c-0.212-0.36-0.092-0.824,0.269-1.036c0.359-0.213,0.824-0.092,1.036,0.269
			c0.732,1.245,1.014,2.706,1.287,4.12c0.196,1.016,0.385,1.995,0.726,2.836c0.207-0.614,0.366-1.298,0.53-2.004
			c0.199-0.853,0.404-1.735,0.711-2.533c0.159-0.538,0.417-1.089,0.665-1.622c0.374-0.798,0.726-1.553,0.726-2.287
			c0-0.418,0.339-0.757,0.757-0.757s0.757,0.339,0.757,0.757c0,1.07-0.441,2.014-0.868,2.927c-0.236,0.506-0.459,0.983-0.605,1.47
			c-0.288,0.755-0.473,1.548-0.668,2.388c-0.304,1.303-0.617,2.65-1.292,3.71c-0.131,0.206-0.354,0.336-0.597,0.349
			C134.506,52.166,134.492,52.166,134.479,52.166z"/>
	</g>
	<g>
		<path d="M142.549,51.445c-0.814,0-1.573-0.227-2.376-0.467c-0.315-0.094-0.64-0.192-0.978-0.276
			c-0.194-0.048-0.362-0.172-0.465-0.345c-0.103-0.172-0.134-0.378-0.085-0.573c0.206-0.825,0.479-1.658,0.742-2.463
			c0.302-0.925,0.615-1.881,0.84-2.856c0.155-0.498,0.267-0.926,0.371-1.325c0.349-1.333,0.65-2.485,1.662-2.846
			c0.777-0.277,1.715,0.028,3.041,0.992c0.338,0.246,0.413,0.719,0.167,1.057c-0.246,0.338-0.718,0.413-1.057,0.167
			c-1.234-0.897-1.603-0.804-1.642-0.79c-0.259,0.092-0.518,1.082-0.707,1.804c-0.11,0.422-0.229,0.875-0.376,1.34
			c-0.225,0.983-0.548,1.972-0.861,2.929c-0.185,0.565-0.363,1.109-0.519,1.647c0.101,0.03,0.201,0.06,0.3,0.09
			c0.725,0.216,1.35,0.403,1.943,0.403c0.418,0,0.757,0.339,0.757,0.757S142.967,51.445,142.549,51.445z"/>
	</g>
	<g>
		<path d="M144.28,47.121c-0.031,0-0.063-0.002-0.094-0.006c-1.106-0.138-2.402-0.138-3.654-0.138c-0.418,0-0.757-0.339-0.757-0.757
			s0.339-0.757,0.757-0.757c1.299,0,2.642,0,3.841,0.149c0.415,0.052,0.709,0.43,0.658,0.844
			C144.982,46.841,144.656,47.121,144.28,47.121z"/>
	</g>
	<g>
		<path d="M145.865,51.878c-0.088,0-0.178-0.016-0.266-0.048c-0.391-0.146-0.59-0.583-0.443-0.974
			c0.654-1.744,1.157-3.993,1.6-5.977c0.132-0.59,0.261-1.167,0.389-1.714c0.067-0.286,0.294-0.507,0.582-0.567
			c0.286-0.06,0.583,0.052,0.76,0.287c0.366,0.489,0.628,1.381,1.026,2.798c0.288,1.028,1.208,4.165,1.77,4.108
			c0.914-0.27,1.535-6.161,1.189-7.889c-0.082-0.41,0.184-0.809,0.594-0.891c0.412-0.08,0.809,0.185,0.891,0.594
			c0.276,1.381,0.127,7.052-1.303,8.94c-0.438,0.578-0.924,0.729-1.255,0.754c-1.818,0.134-2.605-2.578-3.343-5.208
			c-0.004-0.014-0.008-0.028-0.012-0.042c-0.409,1.809-0.875,3.746-1.472,5.338C146.459,51.69,146.171,51.878,145.865,51.878z"/>
	</g>
	<g>
		<path d="M154.946,50.725c-0.026,0-0.053-0.001-0.08-0.004c-0.416-0.043-0.717-0.416-0.673-0.832
			c0.106-1.006,0.153-2.083,0.199-3.124c0.079-1.788,0.161-3.636,0.535-5.321c0.091-0.407,0.496-0.663,0.903-0.575
			c0.408,0.091,0.665,0.495,0.575,0.903c-0.346,1.555-0.424,3.337-0.5,5.06c-0.047,1.064-0.096,2.164-0.207,3.215
			C155.656,50.436,155.328,50.725,154.946,50.725z"/>
	</g>
	<g>
		<path d="M161.042,51.828c-0.862,0-1.718-0.058-2.533-0.261c-0.389-0.097-0.635-0.481-0.56-0.875
			c0.562-2.957,0.562-5.998,0.562-8.938c0-0.418,0.339-0.757,0.757-0.757s0.757,0.339,0.757,0.757c0,2.77,0,5.625-0.458,8.476
			c0.968,0.13,2.042,0.084,3.088,0.039c0.558-0.024,1.115-0.048,1.659-0.048c0.418,0,0.757,0.339,0.757,0.757
			s-0.339,0.757-0.757,0.757c-0.523,0-1.058,0.023-1.594,0.046C162.164,51.803,161.602,51.828,161.042,51.828z"/>
	</g>
	<g>
		<path d="M110.64,35.417c-0.607,0-1.151-0.165-1.627-0.494c-1.697-1.175-1.729-4.011-1.665-5.176
			c0.07-0.979,0.171-1.946,0.275-2.928c0.113-1.067,0.227-2.152,0.302-3.277c-0.002-0.623-0.058-1.434-0.116-2.292
			c-0.187-2.714-0.397-5.79,0.806-7.715c0.052-0.084,0.119-0.154,0.194-0.209c0.07-0.291,0.31-0.523,0.624-0.571
			c1.184-0.177,2.382-0.503,3.651-0.848c1.71-0.465,3.478-0.946,5.215-1.033c0.999-0.135,1.702-0.229,2.228,0.178
			c0.475,0.368,0.543,0.928,0.638,1.702c0.023,0.188,0.049,0.402,0.083,0.643c0.089,0.439,0.38,3-0.072,3.905
			c-0.813,1.426-2.427,1.36-3.856,1.303c-1.456-0.058-2.455-0.043-2.984,0.679c-0.524,0.746-0.622,1.206-0.543,1.37
			c0.228,0.475,1.966,0.587,2.9,0.647c0.828,0.053,1.542,0.099,2.048,0.283c0.385,0.14,0.589,0.561,0.459,0.95
			c-0.083,0.249-0.153,0.909-0.215,1.491c-0.18,1.694-0.321,2.754-0.913,3.199c-0.557,0.418-1.404,0.301-2.3,0.179
			c-0.379-0.052-1.014-0.14-1.192-0.081c-1.056,0.368-1.028,1.262-0.72,3.217c0.255,1.619,0.573,3.635-1.281,4.415
			C111.876,35.262,111.229,35.417,110.64,35.417z M109.966,14.201c-0.018,0.046-0.04,0.091-0.067,0.134
			c-0.943,1.51-0.742,4.449-0.58,6.81c0.061,0.885,0.118,1.721,0.118,2.446c-0.078,1.195-0.194,2.3-0.309,3.386
			c-0.102,0.965-0.202,1.916-0.27,2.865c-0.103,1.856,0.286,3.331,1.016,3.837c0.474,0.328,1.182,0.29,2.104-0.115
			c0.697-0.294,0.648-1.115,0.384-2.79c-0.27-1.713-0.64-4.061,1.689-4.871c0.488-0.195,1.185-0.101,1.923,0
			c0.35,0.048,0.905,0.123,1.159,0.095c0.157-0.385,0.277-1.508,0.344-2.134c0.038-0.353,0.073-0.684,0.114-0.977
			c-0.3-0.033-0.652-0.056-0.998-0.078c-1.667-0.107-3.558-0.229-4.168-1.504c-0.373-0.778-0.15-1.729,0.679-2.907
			c1.054-1.438,2.839-1.366,4.274-1.308c1.322,0.053,2.146,0.046,2.461-0.505c0.133-0.331,0.072-2.152-0.084-2.935
			c-0.043-0.294-0.071-0.518-0.095-0.715c-0.03-0.244-0.063-0.513-0.097-0.664c-0.263-0.01-0.81,0.064-1.128,0.106
			c-1.636,0.084-3.324,0.543-4.956,0.987C112.328,13.679,111.138,14.003,109.966,14.201z"/>
	</g>
	<g>
		<path d="M128.271,37.759c-0.491,0-0.917-0.103-1.287-0.418c-0.53-0.452-0.756-1.202-0.756-2.508c0-0.615,0.124-1.212,0.233-1.739
			c0.264-1.273,0.259-1.631-0.271-1.921c-0.556-0.377-0.859-0.434-0.968-0.384c-0.307,0.145-0.526,0.993-0.654,2.521l-0.011,0.176
			c-0.086,1.32-0.161,2.46-1.017,3.077c-0.626,0.452-1.49,0.501-2.8,0.155c-2.715-0.724-2.603-1.873-2.145-4.008
			c0.465-1.967,1.11-3.926,1.735-5.82c1.2-3.64,2.44-7.403,2.44-11.082c0-0.418,0.339-0.757,0.757-0.757
			c0.182,0,0.349,0.064,0.479,0.171c1.639-1.173,3.253-1.572,4.797-1.179c2.023,0.512,3.778,2.364,5.074,5.355
			c1.356,3.129,0.95,6.58,0.558,9.917c-0.181,1.533-0.351,2.981-0.351,4.364c0,3.121-0.452,3.616-3.454,3.782
			c-0.328,0.04-0.671,0.095-0.983,0.145C129.141,37.687,128.684,37.759,128.271,37.759z M125.306,29.259
			c0.507,0,1.068,0.209,1.675,0.627c1.519,0.824,1.197,2.379,0.962,3.515c-0.099,0.479-0.201,0.973-0.201,1.433
			c0,1.108,0.188,1.325,0.225,1.357c0.149,0.127,0.865,0.012,1.442-0.079c0.331-0.053,0.694-0.11,1.09-0.157
			c2.071-0.116,2.071-0.116,2.071-2.275c0-1.472,0.184-3.032,0.361-4.541c0.369-3.138,0.751-6.383-0.443-9.139
			c-1.087-2.508-2.527-4.103-4.056-4.49c-1.184-0.299-2.483,0.098-3.862,1.181c-0.096,0.075-0.204,0.124-0.315,0.146
			c-0.195,3.571-1.359,7.102-2.487,10.526c-0.643,1.95-1.25,3.792-1.685,5.626c-0.403,1.879-0.403,1.879,1.044,2.266
			c1.084,0.284,1.43,0.151,1.529,0.08c0.277-0.199,0.335-1.088,0.391-1.947l0.013-0.19c0.135-1.617,0.362-3.229,1.515-3.775
			C124.804,29.313,125.048,29.259,125.306,29.259z"/>
	</g>
	<g>
		<path d="M127.851,26.366c-0.061,0-0.123-0.007-0.184-0.023c-0.197-0.049-0.395-0.103-0.592-0.156
			c-0.89-0.242-1.731-0.468-2.5-0.276c-0.406,0.103-0.816-0.146-0.917-0.55c-0.063-0.253,0.009-0.508,0.17-0.688
			c0.032-0.214,0.062-0.457,0.093-0.716c0.23-1.883,0.638-5.038,3.116-4.866c0.422,0.035,1.001,0.223,1.435,0.923
			c0.956,1.545,0.556,4.693,0.083,5.877C128.436,26.183,128.153,26.366,127.851,26.366z M125.399,24.328
			c0.666,0.029,1.308,0.193,1.937,0.362c0.272-1.217,0.324-3.111-0.153-3.882c-0.123-0.198-0.216-0.206-0.261-0.21
			c-0.951-0.051-1.277,1.713-1.5,3.54C125.415,24.202,125.407,24.266,125.399,24.328z"/>
	</g>
	<g>
		<path d="M148.553,37.625c-0.144,0-0.293-0.007-0.447-0.02c-2.379-0.125-3.834-3.297-4.98-6.237c0,0.092,0,0.184,0,0.275
			c0.003,1.563,0.007,3.178-0.643,4.293c-0.477,0.858-1.553,1.453-2.733,1.501c-1.102,0.046-2.066-0.395-2.585-1.174
			c-0.524-0.787-0.416-2.392-0.22-4.407c0.049-0.504,0.093-0.937,0.093-1.202c0-1.935-0.147-3.871-0.29-5.743
			c-0.132-1.737-0.269-3.53-0.285-5.304c-0.002-0.03-0.002-0.061,0-0.091c0-0.083-0.001-0.166-0.001-0.249
			c0-0.418,0.339-0.757,0.757-0.757c0.187,0,0.358,0.068,0.491,0.181c3.209-0.204,7.261,4.658,8.832,6.86
			c0.156-1.05-0.01-3.391-0.098-4.632c-0.129-1.829-0.193-2.892,0.002-3.477c0.458-1.041,1.571-2.101,2.781-2.15
			c0.792-0.023,1.489,0.38,1.916,1.162c0.47,0.822,0.305,2.406-0.003,4.727c-0.099,0.749-0.192,1.456-0.192,1.833
			c0,1.799,0.129,3.643,0.254,5.425c0.064,0.917,0.129,1.834,0.177,2.751c0.017,0.307,0.042,0.626,0.068,0.949
			c0.144,1.794,0.292,3.649-0.797,4.731C150.144,37.372,149.44,37.625,148.553,37.625z M142.695,27.446
			c0.298,0,0.57,0.176,0.691,0.45c0.234,0.526,0.485,1.185,0.759,1.905c0.941,2.471,2.363,6.205,4.066,6.294
			c0.663,0.061,1.114-0.043,1.371-0.298c0.591-0.587,0.466-2.154,0.355-3.537c-0.027-0.335-0.054-0.667-0.071-0.988
			c-0.048-0.911-0.112-1.819-0.175-2.727c-0.127-1.808-0.258-3.678-0.258-5.531c0-0.478,0.096-1.198,0.206-2.032
			c0.144-1.083,0.442-3.335,0.182-3.79c-0.194-0.354-0.382-0.398-0.534-0.388c-0.492,0.02-1.162,0.573-1.433,1.184
			c-0.083,0.26,0.022,1.742,0.099,2.824c0.275,3.883,0.333,6.27-1.167,6.68c-0.065,0.018-0.132,0.027-0.199,0.027h-0.144
			c-0.266,0-0.512-0.14-0.649-0.368c-1.374-2.29-5.492-6.888-7.807-6.956c0.035,1.512,0.15,3.02,0.271,4.6
			c0.145,1.9,0.295,3.865,0.295,5.858c0,0.297-0.045,0.782-0.1,1.348c-0.087,0.896-0.291,2.994-0.026,3.422
			c0.224,0.336,0.699,0.528,1.265,0.501c0.654-0.026,1.249-0.323,1.479-0.738c0.451-0.773,0.448-2.18,0.445-3.541
			c-0.003-1.302-0.006-2.647,0.369-3.697c0.104-0.292,0.375-0.49,0.684-0.502C142.676,27.447,142.686,27.446,142.695,27.446z"/>
	</g>
	<g>
		<path d="M157.085,33.785c-0.954,0-1.858-0.129-2.654-0.408c-1.398-0.489-3.645-1.885-2.969-5.737
			c0.063-0.362,0.377-0.626,0.745-0.626c0.383,0,0.942,0.035,1.598,0.076c1.511,0.094,6.11,0.383,6.489-0.599
			c0.532-1.244-1.675-3.148-3.409-4.112l-0.622-0.355c-1.389-0.787-2.485-1.409-2.767-2.565c-0.223-0.916,0.107-1.959,1.104-3.487
			c1.184-1.923,3.382-4.169,5.972-4.654c0.153-0.028,0.303-0.009,0.437,0.048c2.147-0.106,3.833,0.467,4.815,1.642
			c0.734,0.879,1.418,2.52,0.508,5.339c-0.069,0.215-0.232,0.388-0.442,0.472c-0.21,0.083-0.448,0.066-0.646-0.042
			c-1.067-0.593-3.491-1.44-4.167-0.28c-0.112,0.182-0.223,0.414-0.17,0.577c0.133,0.416,1.116,0.83,1.833,1.132
			c0.321,0.135,0.632,0.267,0.905,0.403l0.577,0.369c2.962,1.917,5.302,3.431,2.923,7.872
			C165.602,31.675,160.943,33.784,157.085,33.785z M152.87,28.55c-0.131,1.732,0.56,2.874,2.061,3.399
			c3.315,1.161,9.314-0.946,10.882-3.819c1.718-3.208,0.593-3.936-2.414-5.882l-0.506-0.329c-0.171-0.08-0.452-0.198-0.741-0.319
			c-1.098-0.462-2.341-0.987-2.687-2.065c-0.183-0.571-0.078-1.182,0.313-1.817c1.089-1.865,3.625-1.397,5.34-0.68
			c0.222-1.047,0.235-2.231-0.457-3.061c-0.775-0.929-2.331-1.292-4.375-1.03c-1.866,0.596-3.476,2.32-4.408,3.833
			c-0.727,1.115-1.021,1.868-0.912,2.319c0.127,0.521,0.931,0.976,2.042,1.606l0.622,0.355c0.538,0.299,5.321,3.062,4.064,5.998
			c-0.708,1.841-4.036,1.788-7.985,1.54C153.405,28.581,153.122,28.563,152.87,28.55z"/>
	</g>
	<g>
		<g>
			<path fill="#C40009" d="M141.563,126.161c0.864,0,0.864-1.341,0-1.341S140.699,126.161,141.563,126.161L141.563,126.161z"/>
		</g>
	</g>
	<g>
		<g>
			<path fill="#C40009" d="M145.022,123.566c0.864,0,0.864-1.341,0-1.341S144.158,123.566,145.022,123.566L145.022,123.566z"/>
		</g>
	</g>
	<g>
		<g>
			<path fill="#C40009" d="M145.887,127.026c0.864,0,0.864-1.341,0-1.341S145.022,127.026,145.887,127.026L145.887,127.026z"/>
		</g>
	</g>
	<g>
		<g>
			<path fill="#C40009" d="M162.75,124.432c0.864,0,0.864-1.341,0-1.341S161.886,124.432,162.75,124.432L162.75,124.432z"/>
		</g>
	</g>
	<g>
		<g>
			<path fill="#C40009" d="M159.724,131.35c0.864,0,0.864-1.341,0-1.341S158.859,131.35,159.724,131.35L159.724,131.35z"/>
		</g>
	</g>
	<g>
		<g>
			<path fill="#C40009" d="M146.752,141.727c0.864,0,0.864-1.341,0-1.341S145.888,141.727,146.752,141.727L146.752,141.727z"/>
		</g>
	</g>
	<g>
		<g>
			<path fill="#C40009" d="M148.481,147.348c0.864,0,0.864-1.341,0-1.341S147.617,147.348,148.481,147.348L148.481,147.348z"/>
		</g>
	</g>
	<g>
		<g>
			<path fill="#C40009" d="M154.103,144.321c0.864,0,0.864-1.341,0-1.341S153.238,144.321,154.103,144.321L154.103,144.321z"/>
		</g>
	</g>
	<g>
		<g>
			<path fill="#C40009" d="M156.697,108.865c0.864,0,0.864-1.341,0-1.341S155.833,108.865,156.697,108.865L156.697,108.865z"/>
		</g>
	</g>
	<g>
		<g>
			<path fill="#C40009" d="M154.103,101.515c0.864,0,0.864-1.341,0-1.341S153.238,101.515,154.103,101.515L154.103,101.515z"/>
		</g>
	</g>
	<g>
		<path d="M166.641,111.979c-0.114,0-0.229-0.026-0.338-0.08c-0.374-0.187-0.525-0.642-0.338-1.015
			c0.268-0.536,0.483-1.408,0.711-2.33c0.467-1.889,0.997-4.03,2.375-4.891c0.354-0.222,0.82-0.115,1.042,0.241
			c0.222,0.354,0.114,0.821-0.241,1.042c-0.858,0.536-1.329,2.441-1.708,3.971c-0.249,1.006-0.484,1.957-0.827,2.644
			C167.186,111.825,166.918,111.979,166.641,111.979z"/>
	</g>
	<g>
		<g>
			<path d="M145.022,116.734c-0.288,0-0.577,0-0.865,0c-0.455,0-0.739,0.6-0.382,0.923c0.419,0.38,0.908,0.686,1.406,0.95
				c0.091-0.336,0.182-0.671,0.273-1.007c-1.521-0.02-2.886-0.493-3.641-1.895c-0.331-0.614-1.264-0.068-0.934,0.546
				c0.934,1.733,2.682,2.406,4.574,2.43c0.526,0.007,0.753-0.753,0.273-1.007c-0.416-0.22-0.837-0.463-1.188-0.781
				c-0.127,0.308-0.255,0.615-0.382,0.923c0.288,0,0.577,0,0.865,0C145.72,117.815,145.72,116.734,145.022,116.734L145.022,116.734z
				"/>
		</g>
	</g>
	<g>
		<g>
			<path d="M160.444,118.013c1.868,0.651,4.691-1.828,2.708-3.454c-1.965-1.61-4.624,1.359-2.73,3.099
				c0.44,0.404,1.188-0.119,0.849-0.655c-0.191-0.302-0.399-0.593-0.199-0.93c0.188-0.317,0.456-0.575,0.632-0.902
				c0.33-0.614-0.604-1.16-0.934-0.546c-0.227,0.422-0.601,0.75-0.777,1.199c-0.238,0.606,0.018,1.208,0.345,1.725
				c0.283-0.218,0.566-0.437,0.849-0.655c-0.923-0.848,0.348-2.269,1.3-1.488c1,0.819-1.013,1.825-1.755,1.566
				C160.072,116.74,159.791,117.785,160.444,118.013L160.444,118.013z"/>
		</g>
	</g>
	<g>
		<g>
			<path d="M105.265,61.41c0.03,13.839,0.619,27.668,0.648,41.507c0.001,0.697,1.083,0.697,1.081,0
				c-0.03-13.839-0.619-27.668-0.648-41.507C106.345,60.713,105.264,60.712,105.265,61.41L105.265,61.41z"/>
		</g>
	</g>
	<g>
		<g>
			<path d="M109.481,132.425c0.041,9.3,0.606,18.587,0.648,27.888c0.003,0.697,1.084,0.697,1.081,0
				c-0.042-9.3-0.607-18.587-0.648-27.888C110.559,131.729,109.478,131.728,109.481,132.425L109.481,132.425z"/>
		</g>
	</g>
	<g>
		<g>
			<path d="M120.29,151.233c-0.236-7.413-0.055-14.806,0.392-22.208c0.5-8.288-1.713-15.644-2.337-23.839
				c-0.517-6.786,0.371-13.646-0.707-20.404c-0.727-4.555-1.695-8.904-1.013-13.547c0.512-3.488,2.03-6.562,2.044-10.15
				c0.003-0.697-1.078-0.697-1.081,0c-0.016,4.013-1.675,7.61-2.25,11.53c-0.355,2.419,0.028,4.924,0.36,7.325
				c1.176,8.51,1.279,16.675,1.566,25.246c0.25,7.45,3.001,14.431,2.461,21.977c-0.574,8.013-0.771,16.041-0.515,24.07
				C119.231,151.929,120.312,151.931,120.29,151.233L120.29,151.233z"/>
		</g>
	</g>
	<g>
		<g>
			<path d="M21.003,72.002c9.299-0.211,17.913-3.388,26.703-6.107c9.982-3.088,20.456-2.372,30.514-4.938
				c0.582-0.148,0.473-1.108-0.144-1.062c-18.452,1.407-36.571,5.167-54.622,9.099c-0.681,0.148-0.392,1.19,0.287,1.042
				c17.957-3.912,35.978-7.66,54.334-9.06c-0.048-0.354-0.096-0.708-0.144-1.062c-8.949,2.283-18.314,1.659-27.254,3.995
				c-9.938,2.597-19.239,6.774-29.675,7.011C20.308,70.937,20.306,72.018,21.003,72.002L21.003,72.002z"/>
		</g>
	</g>
	<g>
		<g>
			<path d="M85.029,61.931c6.116-2.461,12.732-1.89,19.156-1.363c6.993,0.574,14.013,0.817,21.018,1.226
				c15.78,0.919,31.178-0.576,46.912-1.464c0.693-0.039,0.697-1.12,0-1.081c-15.737,0.888-31.129,2.361-46.912,1.464
				c-7.512-0.427-15.031-0.734-22.53-1.35c-6.036-0.496-12.216-0.775-17.931,1.526C84.104,61.146,84.382,62.191,85.029,61.931
				L85.029,61.931z"/>
		</g>
	</g>
	<g>
		<g>
			<path d="M170.946,7.075c1.451,5.635,2.482,11.206,2.575,17.043c0.011,0.697,1.076,0.697,1.081,0
				c0.027-3.983,0.166-7.958-0.019-11.94c-0.074-1.604,0.043-4.706-1.545-5.713c-0.285-0.181-0.721-0.012-0.794,0.323
				c-1.786,8.158,1.275,16.264,1.056,24.466c-0.125,4.66-1.288,9.083-1.157,13.82c0.143,5.145,0.777,10.205,0.514,15.363
				c0.36,0,0.721,0,1.081,0c-0.793-7.888,0.524-15.762,0.578-23.656c0.063-9.159-2.177-18.072-1.01-27.255
				c0.087-0.69-0.995-0.682-1.081,0c-1.09,8.58,0.535,17.053,0.973,25.618c0.432,8.451-1.391,16.836-0.541,25.293
				c0.069,0.685,1.045,0.707,1.081,0c0.32-6.276-0.569-12.494-0.558-18.766c0.012-6.549,1.611-12.23,0.667-18.849
				c-0.536-3.76-1.124-7.485-1.154-11.29c0-0.094-0.191-5.109,0.415-2.813c0.292,1.102,0.318,2.325,0.394,3.458
				c0.267,3.971,0.046,7.965,0.019,11.94c0.36,0,0.721,0,1.081,0c-0.095-5.947-1.133-11.581-2.614-17.33
				C171.815,6.113,170.772,6.4,170.946,7.075L170.946,7.075z"/>
		</g>
	</g>
	<g>
		<g>
			<path d="M90.724,60.978c6.76-0.156,13.379,1.191,20.105,1.622c0-0.36,0-0.721,0-1.081c-7.158,0.458-14.105-1.799-21.268-1.562
				c-7.332,0.244-14.666,0.067-21.995,0.464c-13.973,0.756-27.344,5.386-40.868,8.575c-0.678,0.16-0.391,1.202,0.287,1.042
				c14.104-3.326,27.83-7.846,42.401-8.635c6.715-0.363,13.454-0.204,20.175-0.366c7.157-0.172,14.112,2.019,21.268,1.562
				c0.696-0.044,0.696-1.037,0-1.081c-6.726-0.43-13.345-1.777-20.105-1.622C90.028,59.913,90.026,60.994,90.724,60.978
				L90.724,60.978z"/>
		</g>
	</g>
	<g>
		<g>
			<path d="M4.339,29.126c1.607-3.959,10.824-4.38,14.358-4.894c5.151-0.749,9.869-2.048,14.66-4.136
				c7.174-3.126,14.218-4.607,21.931-5.769c8.472-1.276,16.757-3.623,25.267-4.626c8.133-0.959,16.577-0.251,24.762-0.521
				c8.349-0.275,16.703-0.896,25.043-1.372c6.26-0.358,12.547-0.737,18.756-1.642c6.095-0.889,14.558-3.07,20.134,0.583
				c0.585,0.383,1.126-0.553,0.546-0.934c-4.512-2.955-10.546-2.085-15.599-1.463c-7.328,0.902-14.563,1.792-21.943,2.262
				c-9.614,0.612-19.256,1.233-28.884,1.55c-8.798,0.29-17.671-0.334-26.404,0.927c-8.467,1.223-16.791,3.396-25.262,4.694
				c-8.378,1.284-15.275,4.129-23.102,7.095c-5.389,2.042-11.146,2.273-16.741,3.445c-2.852,0.598-7.319,1.443-8.565,4.512
				C3.034,29.485,4.081,29.763,4.339,29.126L4.339,29.126z"/>
		</g>
	</g>
	<g>
		<g>
			<path d="M1.923,31.395c5.33,2.982,7.297,10.13,9.128,15.538c2.517,7.435,5.463,14.822,8.459,22.079
				c0.262,0.635,1.308,0.357,1.042-0.287c-3.304-8.003-6.396-16.14-9.226-24.32c-1.753-5.068-3.915-11.178-8.857-13.943
				C1.86,30.121,1.315,31.055,1.923,31.395L1.923,31.395z"/>
		</g>
	</g>
	<g>
		<g>
			<path d="M141.983,130.105c2.016,2.954,4.578,5.142,7.89,6.518c0.644,0.268,0.921-0.779,0.287-1.042
				c-3.029-1.259-5.402-3.323-7.243-6.021C142.526,128.987,141.589,129.527,141.983,130.105L141.983,130.105z"/>
		</g>
	</g>
	<g>
		<g>
			<path d="M171.989,21.717c0.431,6.915,0.827,13.825,0.865,20.755c0.36,0,0.721,0,1.081,0c-0.102-6.292-1.202-12.635-0.02-18.882
				c-0.347,0-0.695,0-1.042,0c3.125,11.866-2.826,24.129-1.317,36.177c0.086,0.686,1.014,0.704,1.081,0
				c0.356-3.748,0.428-7.479,0.432-11.242c0-0.705-1.03-0.687-1.081,0c-0.228,3.073-1.069,6.013-1.297,9.081
				c-0.052,0.702,1.011,0.682,1.081,0c0.372-3.601,0.428-7.192,0.432-10.81c0.001-0.698-1.07-0.696-1.081,0
				c-0.073,4.565-0.919,9.69,1.804,13.677c0.26,0.381,0.849,0.34,0.988-0.129c0.699-2.358,0.006-5.58-0.143-7.98
				c-0.17-2.752-0.259-5.581-0.722-8.305c-0.075-0.44-0.809-0.552-0.988-0.129c-1.585,3.744-1.75,7.256-0.919,11.226
				c0.127,0.609,1.06,0.455,1.062-0.144c0.008-2.44,0.055-4.775,0.413-7.207c-0.354-0.048-0.708-0.096-1.062-0.144
				c0.39,3.74,0.51,7.499,0.864,11.242c0.064,0.682,1.077,0.709,1.081,0c0.064-11.833,1.231-23.624,1.298-35.456
				c0.004-0.697-1.077-0.697-1.081,0c-0.067,11.833-1.233,23.623-1.298,35.456c0.36,0,0.721,0,1.081,0
				c-0.354-3.744-0.474-7.502-0.864-11.242c-0.058-0.556-0.966-0.793-1.062-0.144c-0.369,2.501-0.443,4.963-0.452,7.494
				c0.354-0.048,0.708-0.096,1.062-0.144c-0.567-2.713-0.669-4.726-0.214-7.472c0.694-4.189,0.133-2.435,0.292-0.703
				c0.235,2.561,0.402,5.129,0.549,7.696c0.101,1.761,0.205,3.535,0.131,5.298c0.095-2.249-0.826-4.727-0.876-7.177
				c-0.039-1.901,0.107-3.813,0.138-5.714c-0.36,0-0.721,0-1.081,0c-0.004,3.618-0.06,7.209-0.432,10.81c0.36,0,0.721,0,1.081,0
				c0.228-3.073,1.069-6.013,1.297-9.081c-0.36,0-0.721,0-1.081,0c-0.004,3.763-0.076,7.494-0.432,11.242c0.36,0,0.721,0,1.081,0
				c-1.521-12.139,4.434-24.479,1.278-36.464c-0.13-0.495-0.94-0.539-1.042,0c-1.203,6.351-0.123,12.77-0.02,19.169
				c0.011,0.696,1.085,0.698,1.081,0c-0.038-6.93-0.435-13.84-0.865-20.755C173.027,21.025,171.946,21.021,171.989,21.717
				L171.989,21.717z"/>
		</g>
	</g>
	<g>
		<path fill="#2D2C82" d="M172.989,57.818c12.071,1.476,38.626,8.115,49.892,4.427c9.657-2.951,9.657-26.559,10.462-36.888
			c1.61-22.132-16.899-17.706-34.603-17.706c-5.633,0-18.509-2.213-21.727,0.738c-6.438,4.427-1.609,19.919-2.414,27.297
			c-0.805,6.64-1.61,12.542-3.219,19.182"/>
	</g>
	<g>
		<g>
			<path fill="#FFFFFF" d="M204.423,56.342c0.229-4.494,1.693-8.738,1.263-13.279c-1.845,1.844-3.688,3.689-5.533,5.533
				c1.442-0.188,2.699-0.405,4.054-0.929c0.591-0.228,4.474-1.921,3.853-2.007c0.49-3.623,0.98-7.246,1.471-10.869
				c-6.473-0.736-13.006,0.183-19.492,0.262c-7.134,0.088-7.138,11.013,0,11.066c4.11,0.031,8.218,0.231,12.328,0.262
				c2.97,0.022,5.596-2.534,5.533-5.533c-0.061-2.926-0.366-5.841-0.554-8.761c-0.12-1.884-0.746-5.073,0.55-6.685
				c1.225-1.521,5.531-4.992,5.693-1.523c0.332,7.104,11.4,7.137,11.066,0c-0.524-11.208-10.287-14.998-19.667-10.218
				c-11.024,5.62-8.365,17.04-8.155,27.186c1.845-1.844,3.688-3.689,5.533-5.533c-4.11-0.031-8.218-0.231-12.328-0.262
				c0,3.689,0,7.377,0,11.066c6.486-0.08,13.02-0.999,19.492-0.262c6.182,0.703,7.626-10.016,1.471-10.869
				c-1.98-0.274-3.574-0.266-5.524,0.266c-1.738,0.474-3.625,2.053-5.323,2.274c-2.756,0.359-5.844,2.252-5.533,5.533
				c0.425,4.481-1.035,8.81-1.263,13.279C192.993,63.478,204.062,63.442,204.423,56.342L204.423,56.342z"/>
		</g>
	</g>
	<g>
		<g>
			<path d="M174.331,60.829c16.996,0.002,33.987,0.162,50.693,3.661c1.003,0.21,1.431-1.327,0.424-1.538
				c-16.843-3.527-33.978-3.716-51.117-3.717C173.303,59.234,173.303,60.829,174.331,60.829L174.331,60.829z"/>
		</g>
	</g>
	<g>
		<g>
			<path d="M228.218,63.932c2.727-17.375-2.744-35.559,3.688-52.38c0.132-0.343-0.088-0.717-0.366-0.9
				c-7.491-4.953-17.349-4.917-25.99-4.703c-10.652,0.264-21.291,2.038-31.957,1.643c0.071,0.522,0.141,1.044,0.212,1.566
				c14.563-4.272,29.822-2.493,44.765-3.053c6.554-0.246,10.404,0.843,12.536,7.661c1.82,5.826-1.647,13.524-2.792,19.27
				c-1.368,6.869-0.147,13.99-1.634,20.882c-0.87,4.032-0.467,8.377-5.337,8.738c-15.824,1.172-31.241-2.51-47.013-2.684
				c-1.029-0.012-1.028,1.583,0,1.595c10.004,0.111,19.882,1.732,29.828,2.624c6.135,0.55,14.383,1.626,20.398-0.455
				c2.824-0.977,2.912-5.75,3.38-8.057c1.721-8.489,0.686-17.204,2.661-25.625c1.963-8.368,5.739-23.858-6.882-25.514
				c-2.911-0.382-5.986,0.019-8.908,0.088c-4.592,0.11-9.194-0.045-13.787-0.047c-9.296-0.002-18.671,0.408-27.64,3.039
				c-0.877,0.257-0.686,1.533,0.212,1.566c16.143,0.598,32.417-3.742,48.478-0.619c1.471,0.286,2.899,0.728,4.313,1.215
				c3.016,1.039,3.881,1.419,2.851,4.523c-1.612,4.859-2.008,10.116-2.181,15.197c-0.387,11.364,1.401,22.691-0.373,34.007
				C226.522,64.514,228.06,64.946,228.218,63.932L228.218,63.932z"/>
		</g>
	</g>
	<g>
		<g>
			<path d="M203.941,60.031c0.767-5.788,0.306-15.883,8.956-11.833c0.363,0.17,0.933,0.063,1.012-0.412
				c0.609-3.678,1.152-7.367,1.763-11.045c0.145-0.869-1.183-1.241-1.328-0.366c-0.189,1.14-1.342,10.277-2.192,9.967
				c-2.004-0.732-3.818-1.138-5.763-0.099c-3.819,2.041-3.359,10.276-3.824,13.788C202.448,60.91,203.827,60.898,203.941,60.031
				L203.941,60.031z"/>
		</g>
	</g>
	<g>
		<g>
			<path d="M214.319,34.488c0.089,3.452,1.289,10.972-4.114,10.616c-0.605-0.04-0.958,0.201-1.422,0.526
				c-0.594,0.417-2.794-0.039-3.659,0.258c-3.388,1.161-1.976,10.671-2.535,13.271c-0.187,0.866,1.141,1.234,1.328,0.366
				c0.567-2.632,0.552-5.395,0.716-8.073c0.139-2.269-0.326-4.447,3.148-4.206c1.22,0.084,1.818-0.805,3.075-0.722
				c5.99,0.395,4.936-8.322,4.84-12.036C215.674,33.602,214.297,33.6,214.319,34.488L214.319,34.488z"/>
		</g>
	</g>
	<g>
		<g>
			<path d="M215.778,34.514c-2.971-0.645-5.97-0.713-8.999-0.714c0,0.459,0,0.918,0,1.377c2.547,0,5.094,0,7.641,0
				c0.888,0,0.888-1.377,0-1.377c-2.547,0-5.094,0-7.641,0c-0.888,0-0.888,1.376,0,1.377c2.905,0.001,5.781,0.046,8.634,0.666
				C216.278,36.03,216.646,34.703,215.778,34.514L215.778,34.514z"/>
		</g>
	</g>
	<g>
		<g>
			<path d="M206.88,35.178c-0.32-3.167-0.845-7.035,1.451-9.609c2.009-2.252,6.092-2.766,7.081,0.43
				c0.981,3.169,1.293,6.641,5.474,6.417c0.882-0.047,0.89-1.417,0-1.377c-7.104,0.323-1.912-7.963-7.064-10.122
				c-6.869-2.878-7.576,7.515-7.143,11.5c0.095,0.873,1.473,0.882,1.377,0c-0.328-3.018-0.554-6.839,1.466-9.352
				c1.057-1.314,3.401-1.419,4.678-0.38c0.881,0.717,0.885,2.251,0.946,3.269c0.241,3.997,1.163,6.669,5.74,6.461
				c0-0.459,0-0.918,0-1.377c-5.337,0.287-2.388-7.704-7.149-8.652c-2.265-0.451-5.577,0.937-6.897,2.809
				c-2.044,2.9-1.675,6.637-1.336,9.983C205.591,36.053,206.97,36.062,206.88,35.178L206.88,35.178z"/>
		</g>
	</g>
	<g>
		<g>
			<path d="M224.488,25.696c1.516-9.053-5.981-14.242-14.408-13.513c-11.499,0.995-17.17,11.784-16.92,22.306
				c0.021,0.886,1.38,0.889,1.377,0c-0.025-9.423,4.528-19.137,14.34-21.546c10.602-2.603,14.438,8.225,13.671,16.713
				c-0.08,0.885,1.298,0.877,1.377,0c0.804-8.898-3.061-19.805-13.954-18.284c-11.232,1.569-16.839,12.718-16.811,23.117
				c0.459,0,0.918,0,1.377,0c-0.229-9.659,4.259-18.604,14.277-20.737c7.681-1.635,15.775,3.041,14.346,11.578
				C223.015,26.198,224.342,26.57,224.488,25.696L224.488,25.696z"/>
		</g>
	</g>
	<g>
		<g>
			<path d="M187.61,36.374c1.51-0.07,2.922-0.667,4.427-0.738c0.883-0.041,0.893-1.377,0-1.377c-2.214,0-4.427,0-6.641,0
				c-0.888,0-0.888,1.377,0,1.377c2.214,0,4.427,0,6.641,0c0-0.459,0-0.918,0-1.377c-1.51,0.07-2.922,0.667-4.427,0.738
				C186.727,35.038,186.723,36.416,187.61,36.374L187.61,36.374z"/>
		</g>
	</g>
	<g>
		<g>
			<path d="M183.233,35.686c0.002,2.783-0.032,5.606,0.762,8.298c0.22,0.743,1.353,0.604,1.353-0.183c0-1.721,0-3.443,0-5.164
				c-0.459,0-0.918,0-1.377,0c0.14,6.022,4.317,10.476,10.462,8.042c0.677-0.268,0.65-1.384-0.183-1.353
				c-2.234,0.085-4.405,0.652-6.64,0.738c-0.885,0.034-0.889,1.411,0,1.377c2.234-0.085,4.405-0.652,6.64-0.738
				c-0.061-0.451-0.122-0.901-0.183-1.353c-5.263,2.085-8.599-1.507-8.72-6.713c-0.021-0.886-1.377-0.889-1.377,0
				c0,1.721,0,3.443,0,5.164c0.451-0.061,0.901-0.122,1.353-0.183c-0.76-2.576-0.711-5.271-0.713-7.932
				C184.609,34.797,183.232,34.797,183.233,35.686L183.233,35.686z"/>
		</g>
	</g>
	<g>
		<g>
			<path d="M192.823,46.752c0,3.935,0,7.869,0,11.804c0,0.888,1.377,0.888,1.377,0c0-3.935,0-7.869,0-11.804
				C194.2,45.864,192.823,45.864,192.823,46.752L192.823,46.752z"/>
		</g>
	</g>
</g>
</svg>
